<svg aria-hidden="true" style="position: absolute; width: 0; height: 0; overflow: hidden;" version="1.1" xmlns="http://www.w3.org/2000/svg" xmlns:xlink="http://www.w3.org/1999/xlink">
    <defs>
        <symbol id="icon-arrow-down" viewBox="0 0 32 32">
            <path d="M31.33 15.33l-3.232-3.232-9.813 9.813v-21.911h-4.571v21.911l-9.813-9.813-3.232 3.232 15.33 15.33 15.33-15.33z"></path>
        </symbol>
        <symbol id="icon-arrow-left" viewBox="0 0 32 32">
            <path d="M19.902 28.098l-9.813-9.813h21.911v-4.571h-21.911l9.813-9.813-3.232-3.232-15.33 15.33 15.33 15.33 3.232-3.232z"></path>
        </symbol>
        <symbol id="icon-arrow-right" viewBox="0 0 32 32">
            <path d="M12.098 28.098l3.232 3.232 15.33-15.33-15.33-15.33-3.232 3.232 9.813 9.813h-21.911v4.571h21.911l-9.813 9.813z"></path>
        </symbol>
        <symbol id="icon-arrow-top" viewBox="0 0 32 32">
            <path d="M13.714 10.089v21.911h4.571v-21.911l9.813 9.813 3.232-3.232-15.33-15.33-15.33 15.33 3.232 3.232 9.813-9.813z"></path>
        </symbol>
        <symbol id="icon-book" viewBox="0 0 30 32">
            <path d="M27.302 0.69c0.487-0.026 1.012-0.053 1.451 0.045 0.248 0.055 0.412 0.146 0.554 0.363 0.091 0.498 0.172 0.99 0.191 1.497 0.040 1.074 0.031 2.155 0.021 3.234-0.005 0.489-0.011 0.979-0.011 1.467v9.299c0 0.305 0.008 0.819 0.019 1.444 0.038 2.191 0.1 5.753-0.097 6.538-0.141 0.563-0.429 0.822-0.917 1.109-0.436 0.055-0.89 0.067-1.34 0.076-0.236 0.005-0.471 0.009-0.701 0.021-2.171 0.11-4.464 0.333-6.458 1.255-0.534 0.247-1.069 0.537-1.538 0.894-0.241 0.183-0.511 0.437-0.797 0.708-0.714 0.676-1.539 1.457-2.318 1.5-0.897 0.049-1.748-0.719-2.533-1.427-0.373-0.337-0.733-0.659-1.075-0.875-0.828-0.523-1.765-0.927-2.694-1.231-1.532-0.501-3.156-0.759-4.764-0.854-0.243-0.015-0.493-0.013-0.745-0.012-0.466 0.002-0.939 0.003-1.378-0.094-0.383-0.085-0.63-0.28-0.918-0.535-0.211-0.501-0.276-1.121-0.302-1.662-0.046-0.966-0.035-1.944-0.023-2.918 0.005-0.432 0.010-0.864 0.010-1.293l0.007-8.224-0.007-6.224c-0-0.271-0.012-0.566-0.024-0.872-0.032-0.827-0.067-1.727 0.113-2.432 0.099-0.387 0.323-0.559 0.648-0.766 3.568-0.231 7.464 0.51 10.599 2.253 1.041 0.579 1.979 1.289 2.927 2.005 0.533-0.397 1.071-0.795 1.62-1.17 2.951-2.016 6.465-3.012 10.024-3.101 0.145-0.004 0.299-0.012 0.457-0.021zM26.891 3.483c-0.432 0.004-0.89-0.024-1.318 0.033-2.928 0.265-6.685 1.336-8.674 3.668-0.084 0.1-0.165 0.203-0.243 0.307l-0.005 18.313c0.325-0.236 0.647-0.481 0.977-0.71 2.736-1.634 6.158-1.915 9.276-2.139 0-6.487 0.086-12.987-0.014-19.472zM3.557 3.487c-0.067 2.71-0.052 5.43-0.038 8.146 0.006 1.113 0.012 2.226 0.012 3.337 0 0.817-0.010 1.64-0.021 2.464v0.007c-0.023 1.824-0.046 3.659 0.045 5.462 3.603 0.31 7.22 0.666 10.22 2.868-0.018-6.078 0.016-12.155 0.101-18.231-2.359-2.491-6.051-3.962-9.455-4.057-0.288-0.006-0.577-0.004-0.865 0.005z"></path>
            <path d="M27.302 0.69v0zM28.753 0.735v0zM29.307 1.098l0.427-0.078-0.016-0.086-0.048-0.073-0.364 0.238zM29.498 2.595v0zM29.519 5.829v0zM29.509 16.595h-0.434v0l0.434-0zM29.528 18.039v0zM29.431 24.577v0zM28.514 25.687l0.055 0.431 0.089-0.011 0.077-0.045-0.221-0.374zM27.174 25.763v0zM26.472 25.784l-0.022-0.434h-0l0.022 0.434zM20.014 27.039v0zM18.476 27.933v0zM17.679 28.641v0zM15.361 30.141l0.024 0.434h0l-0.024-0.434zM12.828 28.714v0zM11.753 27.839v0zM9.059 26.608l0.135-0.413h-0l-0.135 0.413zM4.295 25.754l-0.026 0.434h0l0.026-0.434zM3.55 25.742v0zM2.172 25.648l-0.094 0.424 0.001 0 0.094-0.424zM1.253 25.114l-0.4 0.169 0.038 0.091 0.074 0.065 0.288-0.325zM0.951 23.452v0zM0.929 20.534v0zM0.939 19.24v0zM0.946 11.016l0.434 0v-0.001l-0.434 0zM0.939 4.792v0zM0.915 3.921v0zM1.028 1.489v0zM1.675 0.723l-0.028-0.433-0.111 0.007-0.094 0.060 0.234 0.366zM12.274 2.976v0zM15.201 4.982l-0.262 0.347 0.26 0.197 0.261-0.195-0.26-0.348zM16.821 3.812v0zM26.846 0.711l0.011 0.434h0l-0.011-0.434zM26.891 3.483l0.434-0.007-0.007-0.431-0.431 0.004 0.004 0.434zM25.573 3.516l0.039 0.433 0.018-0.002-0.057-0.431zM16.899 7.185l-0.331-0.282-0.001 0.001 0.332 0.28zM16.656 7.492l-0.347-0.261-0.087 0.116-0 0.145 0.434 0zM16.651 25.805l-0.434-0-0 0.853 0.69-0.502-0.255-0.351zM17.628 25.095l-0.223-0.373-0.013 0.008-0.012 0.009 0.248 0.357zM26.905 22.956l0.031 0.433 0.403-0.029v-0.404h-0.434zM3.557 3.487l-0.014-0.434-0.41 0.013-0.010 0.41 0.434 0.011zM3.519 11.633v0zM3.531 14.97v0zM3.51 17.433l-0.434-0.006v0.006h0.434zM3.51 17.44l0.434 0.005v-0.005h-0.434zM3.556 22.902l-0.434 0.022 0.019 0.378 0.378 0.033 0.037-0.433zM13.776 25.77l-0.257 0.35 0.694 0.509-0.003-0.861-0.434 0.001zM13.877 7.539l0.434 0.006 0.002-0.177-0.121-0.128-0.315 0.299zM4.422 3.482l0.012-0.434-0.003-0-0.009 0.434zM27.302 0.69l0.023 0.434c0.502-0.027 0.963-0.047 1.334 0.035l0.189-0.848c-0.509-0.114-1.097-0.080-1.569-0.055l0.023 0.434zM28.753 0.735l-0.095 0.424c0.096 0.021 0.146 0.043 0.179 0.064 0.029 0.019 0.063 0.048 0.105 0.112l0.727-0.475c-0.1-0.152-0.219-0.277-0.369-0.372-0.147-0.093-0.302-0.144-0.454-0.177l-0.095 0.424zM29.307 1.098l-0.427 0.078c0.091 0.495 0.167 0.962 0.184 1.434l0.868-0.032c-0.020-0.54-0.106-1.059-0.198-1.559l-0.427 0.078zM29.498 2.595l-0.434 0.016c0.039 1.062 0.031 2.134 0.020 3.214l0.869 0.008c0.010-1.078 0.019-2.169-0.021-3.255l-0.434 0.016zM29.519 5.829l-0.434-0.004c-0.005 0.488-0.010 0.981-0.010 1.471h0.869c0-0.485 0.006-0.972 0.010-1.463l-0.434-0.004zM29.509 7.296h-0.434v9.299h0.869v-9.299h-0.434zM29.509 16.595l-0.434 0c0 0.309 0.008 0.827 0.019 1.452l0.869-0.015c-0.011-0.627-0.019-1.136-0.019-1.437l-0.434 0zM29.528 18.039l-0.434 0.007c0.019 1.096 0.044 2.53 0.039 3.787-0.002 0.629-0.012 1.209-0.033 1.679-0.022 0.485-0.054 0.811-0.091 0.959l0.843 0.211c0.061-0.245 0.095-0.659 0.116-1.131 0.022-0.487 0.031-1.081 0.033-1.715 0.004-1.268-0.021-2.711-0.039-3.805l-0.434 0.007zM29.431 24.577l-0.421-0.106c-0.056 0.224-0.135 0.365-0.233 0.477-0.105 0.119-0.252 0.228-0.483 0.364l0.441 0.748c0.257-0.151 0.498-0.316 0.694-0.539 0.203-0.23 0.338-0.501 0.424-0.839l-0.421-0.106zM28.514 25.687l-0.055-0.431c-0.41 0.052-0.842 0.063-1.295 0.073l0.019 0.869c0.447-0.010 0.924-0.021 1.385-0.080l-0.055-0.431zM27.174 25.763l-0.010-0.434c-0.232 0.005-0.475 0.009-0.714 0.021l0.022 0.434 0.022 0.434c0.223-0.011 0.45-0.015 0.689-0.020l-0.010-0.434zM26.472 25.784l-0.022-0.434c-2.174 0.111-4.542 0.335-6.619 1.295l0.364 0.789c1.912-0.884 4.13-1.105 6.298-1.216l-0.022-0.434zM20.014 27.039l-0.182-0.394c-0.549 0.254-1.115 0.559-1.619 0.943l0.526 0.691c0.435-0.331 0.939-0.606 1.457-0.846l-0.182-0.394zM18.476 27.933l-0.263-0.346c-0.263 0.2-0.551 0.472-0.832 0.738l0.597 0.631c0.291-0.276 0.543-0.512 0.761-0.678l-0.263-0.346zM17.679 28.641l-0.299-0.316c-0.361 0.342-0.725 0.686-1.091 0.951-0.372 0.27-0.69 0.416-0.952 0.431l0.024 0.434 0.024 0.434c0.516-0.029 1.001-0.295 1.414-0.595 0.42-0.305 0.826-0.689 1.178-1.023l-0.299-0.315zM15.361 30.141l-0.024-0.434c-0.316 0.017-0.66-0.108-1.048-0.36s-0.771-0.596-1.17-0.956l-0.582 0.645c0.387 0.349 0.822 0.743 1.279 1.040s0.988 0.531 1.569 0.499l-0.024-0.434zM12.828 28.714l0.291-0.323c-0.366-0.33-0.755-0.68-1.134-0.92l-0.464 0.735c0.304 0.192 0.635 0.487 1.016 0.83l0.291-0.323zM11.753 27.839l0.232-0.367c-0.866-0.547-1.838-0.964-2.791-1.276l-0.27 0.826c0.905 0.296 1.807 0.686 2.598 1.185l0.232-0.367zM9.059 26.608l0.135-0.413c-1.576-0.515-3.238-0.778-4.873-0.875l-0.026 0.434-0.026 0.434c1.58 0.094 3.166 0.346 4.655 0.833l0.135-0.413zM4.295 25.754l0.026-0.434c-0.259-0.015-0.525-0.014-0.772-0.013l0.001 0.434 0.001 0.434c0.255-0.001 0.491-0.002 0.717 0.011l0.026-0.434zM3.55 25.742l-0.001-0.434c-0.476 0.002-0.899 0.001-1.283-0.084l-0.187 0.848c0.495 0.109 1.017 0.105 1.474 0.104l-0.001-0.434zM2.172 25.648l0.094-0.424c-0.269-0.060-0.446-0.189-0.725-0.436l-0.576 0.65c0.298 0.264 0.615 0.523 1.112 0.634l0.094-0.424zM1.253 25.114l0.4-0.169c-0.179-0.426-0.243-0.98-0.269-1.514l-0.868 0.042c0.026 0.547 0.093 1.233 0.336 1.809l0.4-0.169zM0.951 23.452l0.434-0.021c-0.046-0.951-0.034-1.916-0.022-2.892l-0.869-0.011c-0.012 0.972-0.024 1.963 0.023 2.945l0.434-0.021zM0.929 20.534l0.434 0.006c0.005-0.432 0.010-0.866 0.010-1.299l-0.869-0c-0 0.427-0.005 0.856-0.010 1.288l0.434 0.005zM0.939 19.24l0.434 0 0.007-8.224-0.869-0.001-0.007 8.224 0.434 0zM0.946 11.016l0.434-0-0.007-6.224-0.869 0.001 0.007 6.224 0.434-0zM0.939 4.792l0.434-0c-0-0.282-0.013-0.586-0.025-0.888l-0.868 0.034c0.012 0.308 0.024 0.594 0.024 0.855l0.434-0zM0.915 3.921l0.434-0.017c-0.033-0.846-0.061-1.677 0.1-2.308l-0.842-0.215c-0.199 0.779-0.157 1.75-0.126 2.557l0.434-0.017zM1.028 1.489l0.421 0.107c0.056-0.218 0.155-0.312 0.46-0.507l-0.467-0.732c-0.343 0.219-0.693 0.468-0.835 1.024l0.421 0.107zM1.675 0.723l0.028 0.433c3.495-0.227 7.307 0.501 10.36 2.2l0.422-0.759c-3.217-1.79-7.198-2.543-10.838-2.307l0.028 0.433zM12.274 2.976l-0.211 0.38c1.010 0.562 1.924 1.253 2.876 1.972l0.524-0.693c-0.944-0.713-1.906-1.442-2.978-2.038l-0.211 0.38zM15.201 4.982l0.26 0.348c0.533-0.397 1.064-0.79 1.605-1.16l-0.49-0.717c-0.557 0.381-1.101 0.783-1.634 1.181l0.26 0.348zM16.821 3.812l0.245 0.359c2.873-1.963 6.303-2.938 9.79-3.025l-0.011-0.434-0.011-0.434c-3.632 0.090-7.23 1.107-10.259 3.176l0.245 0.359zM26.846 0.711l0.011 0.434c0.153-0.004 0.315-0.013 0.469-0.021l-0.046-0.868c-0.161 0.009-0.307 0.017-0.444 0.020l0.011 0.434zM26.891 3.483l-0.004-0.434c-0.39 0.003-0.908-0.025-1.371 0.037l0.057 0.431 0.057 0.431c0.392-0.052 0.79-0.025 1.264-0.029l-0.004-0.434zM25.573 3.516l-0.039-0.433c-1.497 0.135-3.208 0.477-4.805 1.086-1.594 0.608-3.102 1.493-4.16 2.734l0.661 0.564c0.93-1.092 2.295-1.908 3.809-2.486 1.511-0.576 3.142-0.903 4.573-1.032l-0.039-0.433zM16.899 7.185l-0.332-0.28c-0.091 0.108-0.177 0.219-0.259 0.327l0.695 0.522c0.076-0.101 0.151-0.197 0.228-0.288l-0.332-0.28zM16.656 7.492l-0.434-0-0.005 18.312 0.869 0 0.005-18.313-0.434-0zM16.651 25.805l0.255 0.351c0.335-0.244 0.644-0.478 0.97-0.705l-0.496-0.714c-0.335 0.233-0.67 0.487-0.985 0.715l0.255 0.351zM17.628 25.095l0.223 0.373c2.633-1.572 5.948-1.853 9.084-2.078l-0.031-0.433-0.031-0.433c-3.099 0.223-6.629 0.503-9.468 2.199l0.223 0.373zM26.905 22.956h0.434c0-6.479 0.087-12.989-0.014-19.479l-0.869 0.013c0.1 6.481 0.014 12.971 0.014 19.465h0.434zM3.557 3.487l-0.434-0.011c-0.067 2.717-0.052 5.445-0.038 8.159l0.869-0.005c-0.014-2.717-0.029-5.431 0.038-8.133l-0.434-0.011zM3.519 11.633l-0.434 0.002c0.006 1.113 0.012 2.225 0.012 3.335l0.869-0c-0-1.113-0.006-2.226-0.012-3.339l-0.434 0.002zM3.531 14.97l-0.434 0c0 0.813-0.010 1.633-0.021 2.458l0.869 0.011c0.010-0.823 0.021-1.649 0.021-2.469l-0.434 0zM3.51 17.433h-0.434v0.007h0.869v-0.007h-0.434zM3.51 17.44l-0.434-0.005c-0.023 1.822-0.046 3.67 0.046 5.489l0.868-0.044c-0.090-1.787-0.068-3.608-0.045-5.435l-0.434-0.005zM3.556 22.902l-0.037 0.433c3.619 0.312 7.113 0.666 10.001 2.786l0.514-0.701c-3.114-2.285-6.854-2.642-10.44-2.951l-0.037 0.433zM13.776 25.77l0.434-0.001c-0.018-6.075 0.016-12.149 0.101-18.224l-0.869-0.012c-0.085 6.079-0.118 12.159-0.101 18.238l0.434-0.001zM13.877 7.539l0.315-0.299c-2.448-2.584-6.253-4.094-9.758-4.193l-0.024 0.868c3.303 0.093 6.881 1.525 9.152 3.922l0.315-0.299zM4.422 3.482l0.009-0.434c-0.296-0.006-0.593-0.004-0.888 0.005l0.028 0.868c0.28-0.009 0.561-0.011 0.841-0.005l0.009-0.434z"></path>
        </symbol>
        <symbol id="icon-check" viewBox="0 0 40 32">
            <path d="M13.333 22.896l-8.781-8.781-3.771 3.771 12.552 12.552 25.885-25.885-3.771-3.771-22.115 22.115z"></path>
        </symbol>
        <symbol id="icon-close" viewBox="0 0 32 32">
            <path d="M27.179 0.918l-11.315 11.312-11.312-11.312-3.771 3.771 11.312 11.312-11.312 11.312 3.771 3.771 11.312-11.312 11.315 11.312 3.771-3.771-11.312-11.312 11.312-11.312-3.771-3.771z"></path>
        </symbol>
        <symbol id="icon-down" viewBox="0 0 48 32">
            <path d="M41.172 1.172l-17.172 17.172-17.172-17.172-5.656 5.656 22.828 22.828 22.828-22.828-5.656-5.656z"></path>
        </symbol>
        <symbol id="icon-email" viewBox="0 0 38 32">
            <path d="M33.882 1.581h-30.118c-2.076 0-3.765 1.688-3.765 3.765v22.588c0 2.076 1.688 3.765 3.765 3.765h30.118c2.076 0 3.765-1.688 3.765-3.765v-22.588c0-2.076-1.688-3.765-3.765-3.765zM33.882 5.346v0.962l-15.059 11.714-15.059-11.712v-0.964h30.118zM3.765 27.934v-16.858l13.903 10.814c0.33 0.259 0.737 0.4 1.156 0.4s0.826-0.141 1.156-0.4l13.903-10.814 0.004 16.858h-30.121z"></path>
        </symbol>
        <symbol id="icon-half-burger" viewBox="0 0 43 32">
            <path d="M0 0h42.667v5.333h-42.667v-5.333zM10.667 13.333h32v5.333h-32v-5.333zM24 26.667h18.667v5.333h-18.667v-5.333z"></path>
        </symbol>
        <symbol id="icon-left" viewBox="0 0 21 32">
            <path d="M16.781 0.781l-15.219 15.219 15.219 15.219 3.771-3.771-11.448-11.448 11.448-11.448-3.771-3.771z"></path>
        </symbol>
        <symbol id="icon-location" viewBox="0 0 24 32">
            <path d="M12.191 19.565c3.362 0 6.095-2.734 6.095-6.095s-2.734-6.095-6.095-6.095c-3.362 0-6.095 2.734-6.095 6.095s2.734 6.095 6.095 6.095zM12.191 10.423c1.681 0 3.048 1.367 3.048 3.048s-1.367 3.048-3.048 3.048c-1.681 0-3.048-1.367-3.048-3.048s1.367-3.048 3.048-3.048z"></path>
            <path d="M11.307 31.472c0.258 0.184 0.567 0.283 0.884 0.283s0.626-0.099 0.884-0.283c0.463-0.328 11.351-8.189 11.307-18.002 0-6.722-5.469-12.19-12.191-12.19s-12.19 5.469-12.19 12.183c-0.044 9.821 10.843 17.682 11.307 18.010zM12.191 4.327c5.042 0 9.143 4.101 9.143 9.15 0.032 6.763-6.686 12.835-9.143 14.827-2.455-1.993-9.175-8.067-9.143-14.834 0-5.042 4.101-9.143 9.143-9.143z"></path>
        </symbol>
        <symbol id="icon-logo" viewBox="0 0 121 32">
            <path d="M2.144 16.446c-0.001 0.093-0.002 0.187-0.004 0.28 0.001-0.092 0.002-0.183 0.004-0.275v-0.005z"></path>
            <path d="M21.611 2.746c0.398-0.021 0.828-0.043 1.188 0.037 0.203 0.045 0.337 0.119 0.453 0.297 0.075 0.407 0.141 0.81 0.156 1.224 0.033 0.878 0.025 1.763 0.017 2.646-0.004 0.401-0.009 0.801-0.009 1.2v7.608c0 0.25 0.007 0.67 0.016 1.182 0.031 1.792 0.082 4.707-0.080 5.349-0.116 0.46-0.351 0.673-0.75 0.908-0.356 0.045-0.728 0.054-1.097 0.062-0.193 0.004-0.385 0.008-0.574 0.017-1.776 0.090-3.652 0.273-5.284 1.027-0.437 0.202-0.875 0.439-1.259 0.732-0.197 0.15-0.418 0.358-0.652 0.58-0.584 0.553-1.259 1.192-1.896 1.227-0.734 0.040-1.43-0.588-2.072-1.168-0.306-0.276-0.6-0.54-0.879-0.716-0.678-0.428-1.444-0.758-2.205-1.007-1.254-0.41-2.582-0.621-3.898-0.699-0.199-0.012-0.404-0.011-0.609-0.010-0.382 0.001-0.768 0.003-1.128-0.077-0.313-0.070-0.516-0.229-0.751-0.438-0.173-0.41-0.226-0.917-0.247-1.359-0.038-0.791-0.028-1.591-0.018-2.388 0.004-0.353 0.008-0.707 0.009-1.058l0.006-6.729-0.006-5.092c-0-0.222-0.010-0.463-0.020-0.713-0.026-0.676-0.055-1.413 0.092-1.99 0.081-0.317 0.265-0.457 0.53-0.626 2.919-0.189 6.107 0.417 8.672 1.844 0.852 0.474 1.619 1.054 2.395 1.641 0.436-0.325 0.876-0.65 1.325-0.957 2.414-1.65 5.289-2.464 8.202-2.537 0.119-0.003 0.245-0.010 0.374-0.017zM21.274 5.032c-0.354 0.003-0.728-0.019-1.078 0.027-2.396 0.217-5.47 1.093-7.097 3.001-0.069 0.082-0.135 0.166-0.199 0.251l-0.004 14.983c0.266-0.193 0.53-0.393 0.8-0.581 2.238-1.337 5.038-1.567 7.59-1.75 0-5.307 0.071-10.626-0.011-15.932zM2.183 5.035c-0.055 2.217-0.043 4.443-0.031 6.665 0.005 0.911 0.010 1.821 0.010 2.73 0 0.668-0.009 1.341-0.017 2.016v0.006c-0.019 1.492-0.037 2.993 0.037 4.469 2.948 0.254 5.907 0.545 8.362 2.346-0.015-4.972 0.013-9.944 0.082-14.916-1.93-2.038-4.951-3.241-7.736-3.32-0.236-0.005-0.472-0.003-0.707 0.004z"></path>
            <path d="M21.611 2.746v0zM22.798 2.783v0zM23.251 3.080l0.35-0.064-0.013-0.070-0.039-0.060-0.298 0.194zM23.408 4.305v0zM23.425 6.951v0zM23.416 15.759h-0.355v0l0.355-0zM23.432 16.941v0zM23.352 22.29v0zM22.602 23.198l0.045 0.353 0.073-0.009 0.063-0.037-0.18-0.306zM21.506 23.261v0zM20.932 23.278l-0.018-0.355h-0l0.018 0.355zM15.648 24.305v0zM14.389 25.036v0zM13.737 25.616v0zM11.841 26.843l0.020 0.355h0l-0.020-0.355zM9.768 25.675v0zM8.889 24.959v0zM6.685 23.952l0.111-0.338h-0l-0.11 0.338zM2.787 23.253l-0.021 0.355h0l0.021-0.355zM2.178 23.244v0zM1.050 23.167l-0.077 0.347 0.001 0 0.077-0.347zM0.298 22.729l-0.328 0.138 0.031 0.075 0.061 0.054 0.236-0.266zM0.051 21.37v0zM0.033 18.982v0zM0.041 17.924v0zM0.047 11.195l0.355 0v-0.001l-0.355 0zM0.041 6.103v0zM0.021 5.39v0zM0.114 3.4v0zM0.643 2.773l-0.023-0.355-0.091 0.006-0.077 0.049 0.191 0.3zM9.315 4.617v0zM11.71 6.258l-0.214 0.284 0.213 0.161 0.214-0.16-0.212-0.285zM13.035 5.3v0zM21.237 2.763l0.009 0.355h0l-0.009-0.355zM21.274 5.032l0.355-0.005-0.006-0.353-0.353 0.003 0.003 0.355zM20.196 5.059l0.032 0.354 0.015-0.002-0.047-0.352zM13.099 8.060l-0.27-0.231-0.001 0.001 0.271 0.229zM12.901 8.312l-0.284-0.213-0.071 0.095-0 0.119 0.355 0zM12.896 23.295l-0.355-0-0 0.698 0.565-0.41-0.209-0.287zM13.696 22.714l-0.182-0.305-0.010 0.006-0.010 0.007 0.203 0.292zM21.286 20.964l0.025 0.355 0.33-0.024v-0.331h-0.355zM2.183 5.035l-0.012-0.355-0.335 0.011-0.008 0.335 0.355 0.009zM2.152 11.699v0zM2.162 14.43v0zM2.145 16.445l-0.355-0.005v0.005h0.355zM2.145 16.451l0.355 0.005v-0.005h-0.355zM2.182 20.92l-0.355 0.018 0.016 0.31 0.309 0.027 0.030-0.354zM10.544 23.266l-0.21 0.287 0.568 0.417-0.002-0.704-0.355 0.001zM10.626 8.35l0.355 0.005 0.002-0.144-0.099-0.105-0.258 0.244zM2.891 5.030l0.010-0.355-0.002-0-0.008 0.355zM21.611 2.746l0.019 0.355c0.411-0.022 0.788-0.039 1.091 0.029l0.155-0.694c-0.417-0.093-0.898-0.065-1.284-0.045l0.019 0.355zM22.798 2.783l-0.077 0.347c0.078 0.017 0.12 0.035 0.147 0.052 0.024 0.015 0.052 0.039 0.086 0.092l0.595-0.389c-0.081-0.125-0.179-0.227-0.302-0.304-0.12-0.076-0.247-0.118-0.372-0.145l-0.077 0.347zM23.251 3.080l-0.35 0.064c0.074 0.405 0.136 0.787 0.151 1.174l0.71-0.026c-0.016-0.442-0.087-0.866-0.162-1.275l-0.35 0.064zM23.408 4.305l-0.355 0.013c0.032 0.869 0.025 1.746 0.017 2.63l0.711 0.007c0.008-0.882 0.016-1.775-0.017-2.663l-0.355 0.013zM23.425 6.951l-0.355-0.003c-0.004 0.399-0.008 0.802-0.008 1.204h0.711c0-0.397 0.005-0.795 0.008-1.197l-0.355-0.003zM23.416 8.151h-0.355v7.608h0.711v-7.608h-0.355zM23.416 15.759l-0.355 0c0 0.253 0.007 0.676 0.016 1.188l0.711-0.012c-0.009-0.513-0.015-0.93-0.016-1.176l-0.355 0zM23.432 16.941l-0.355 0.006c0.016 0.897 0.036 2.070 0.032 3.098-0.002 0.514-0.010 0.99-0.027 1.374-0.018 0.396-0.044 0.664-0.074 0.784l0.689 0.173c0.050-0.201 0.078-0.539 0.095-0.926 0.018-0.399 0.026-0.885 0.027-1.403 0.004-1.037-0.017-2.218-0.032-3.113l-0.355 0.006zM23.352 22.29l-0.345-0.087c-0.046 0.183-0.11 0.298-0.191 0.39-0.086 0.098-0.206 0.187-0.395 0.298l0.361 0.613c0.21-0.124 0.407-0.258 0.568-0.441 0.166-0.188 0.277-0.409 0.347-0.686l-0.345-0.087zM22.602 23.198l-0.045-0.353c-0.335 0.043-0.689 0.052-1.060 0.060l0.016 0.711c0.366-0.008 0.756-0.017 1.134-0.065l-0.045-0.353zM21.506 23.261l-0.008-0.355c-0.19 0.004-0.389 0.008-0.584 0.017l0.018 0.355 0.018 0.355c0.182-0.009 0.368-0.012 0.564-0.017l-0.008-0.355zM20.932 23.278l-0.018-0.355c-1.779 0.090-3.716 0.274-5.415 1.059l0.298 0.645c1.564-0.723 3.379-0.904 5.153-0.995l-0.018-0.355zM15.648 24.305l-0.149-0.323c-0.449 0.208-0.913 0.458-1.325 0.771l0.43 0.566c0.356-0.271 0.768-0.496 1.192-0.692l-0.149-0.323zM14.389 25.036l-0.215-0.283c-0.215 0.164-0.451 0.386-0.681 0.604l0.489 0.516c0.238-0.225 0.444-0.419 0.623-0.555l-0.215-0.283zM13.737 25.616l-0.244-0.258c-0.296 0.28-0.594 0.561-0.893 0.778-0.305 0.221-0.564 0.34-0.779 0.352l0.040 0.71c0.422-0.024 0.819-0.241 1.157-0.487 0.344-0.249 0.675-0.564 0.964-0.837l-0.244-0.258zM11.841 26.843l-0.020-0.355c-0.259 0.014-0.54-0.088-0.858-0.295s-0.631-0.488-0.957-0.782l-0.476 0.528c0.316 0.286 0.672 0.608 1.046 0.851s0.808 0.434 1.284 0.408l-0.020-0.355zM9.768 25.675l0.238-0.264c-0.299-0.27-0.617-0.556-0.928-0.752l-0.38 0.601c0.249 0.157 0.519 0.398 0.831 0.679l0.238-0.264zM8.889 24.959l0.19-0.3c-0.709-0.448-1.504-0.789-2.284-1.044l-0.221 0.675c0.74 0.242 1.479 0.562 2.125 0.97l0.19-0.3zM6.685 23.952l0.11-0.338c-1.289-0.422-2.649-0.636-3.987-0.716l-0.021 0.355-0.021 0.355c1.293 0.077 2.59 0.283 3.808 0.682l0.11-0.338zM2.787 23.253l0.021-0.355c-0.212-0.013-0.429-0.011-0.632-0.010l0.001 0.355 0.001 0.355c0.209-0.001 0.402-0.002 0.587 0.009l0.021-0.355zM2.178 23.244l-0.001-0.355c-0.39 0.001-0.735 0.001-1.050-0.068l-0.153 0.694c0.405 0.089 0.832 0.086 1.206 0.085l-0.001-0.355zM1.050 23.167l0.077-0.347c-0.22-0.049-0.365-0.155-0.593-0.357l-0.471 0.532c0.244 0.216 0.503 0.428 0.91 0.518l0.077-0.347zM0.298 22.729l0.328-0.138c-0.147-0.349-0.199-0.802-0.22-1.239l-0.71 0.034c0.022 0.448 0.076 1.009 0.275 1.48l0.328-0.138zM0.051 21.37l0.355-0.017c-0.037-0.778-0.028-1.568-0.018-2.366l-0.711-0.009c-0.010 0.795-0.020 1.606 0.019 2.409l0.355-0.017zM0.033 18.982l0.355 0.005c0.004-0.354 0.008-0.709 0.009-1.063l-0.711-0c-0 0.349-0.004 0.701-0.009 1.054l0.355 0.004zM0.041 17.924l0.355 0 0.006-6.729-0.711-0.001-0.006 6.729 0.355 0zM0.047 11.195l0.355-0-0.006-5.092-0.711 0.001 0.006 5.092 0.355-0zM0.041 6.103l0.355-0c-0-0.23-0.010-0.48-0.020-0.727l-0.71 0.028c0.010 0.252 0.019 0.486 0.020 0.699l0.355-0zM0.021 5.39l0.355-0.014c-0.027-0.692-0.050-1.372 0.082-1.888l-0.689-0.176c-0.163 0.637-0.129 1.431-0.103 2.092l0.355-0.014zM0.114 3.4l0.344 0.088c0.046-0.178 0.126-0.255 0.377-0.415l-0.382-0.599c-0.281 0.179-0.567 0.383-0.683 0.838l0.344 0.088zM0.643 2.773l0.023 0.355c2.86-0.185 5.978 0.41 8.476 1.8l0.346-0.621c-2.632-1.464-5.89-2.081-8.868-1.888l0.023 0.355zM9.315 4.617l-0.173 0.311c0.827 0.46 1.574 1.025 2.353 1.614l0.429-0.567c-0.772-0.584-1.559-1.18-2.436-1.668l-0.173 0.311zM11.71 6.258l0.212 0.285c0.436-0.325 0.871-0.646 1.313-0.949l-0.401-0.587c-0.456 0.311-0.901 0.641-1.337 0.966l0.212 0.285zM13.035 5.3l0.201 0.293c2.351-1.606 5.157-2.404 8.010-2.475l-0.009-0.355-0.009-0.355c-2.971 0.074-5.915 0.905-8.393 2.599l0.201 0.293zM21.237 2.763l0.009 0.355c0.125-0.003 0.258-0.011 0.384-0.017l-0.038-0.71c-0.131 0.007-0.251 0.014-0.363 0.017l0.009 0.355zM21.274 5.032l-0.003-0.355c-0.319 0.003-0.743-0.020-1.122 0.030l0.047 0.352 0.047 0.352c0.321-0.043 0.646-0.021 1.034-0.024l-0.003-0.355zM20.196 5.059l-0.032-0.354c-1.224 0.111-2.625 0.39-3.931 0.888-1.304 0.497-2.538 1.221-3.404 2.237l0.541 0.461c0.761-0.893 1.877-1.561 3.116-2.034 1.236-0.471 2.571-0.739 3.742-0.844l-0.032-0.354zM13.099 8.060l-0.271-0.229c-0.075 0.089-0.145 0.179-0.212 0.267l0.568 0.427c0.062-0.082 0.123-0.161 0.186-0.236l-0.271-0.229zM12.901 8.312l-0.355-0-0.004 14.983 0.711 0 0.004-14.983-0.355-0zM12.896 23.295l0.209 0.287c0.274-0.199 0.527-0.391 0.793-0.577l-0.405-0.584c-0.274 0.19-0.548 0.398-0.806 0.585l0.209 0.288zM13.696 22.714l0.182 0.305c2.154-1.287 4.866-1.516 7.433-1.701l-0.025-0.355-0.026-0.354c-2.536 0.182-5.424 0.412-7.746 1.799l0.182 0.305zM21.286 20.964h0.355c0-5.301 0.071-10.628-0.011-15.937l-0.711 0.011c0.082 5.303 0.012 10.613 0.011 15.926h0.355zM2.183 5.035l-0.355-0.009c-0.055 2.223-0.043 4.455-0.031 6.675l0.711-0.004c-0.012-2.223-0.024-4.443 0.031-6.654l-0.355-0.009zM2.152 11.699l-0.355 0.002c0.005 0.911 0.010 1.82 0.010 2.728l0.711-0c-0-0.91-0.005-1.822-0.010-2.732l-0.355 0.002zM2.162 14.43l-0.355 0c0 0.665-0.008 1.336-0.017 2.011l0.711 0.009c0.009-0.674 0.017-1.349 0.017-2.020l-0.355 0zM2.145 16.445h-0.355v0.006h0.711v-0.006h-0.355zM2.145 16.451l-0.355-0.005c-0.019 1.49-0.038 3.003 0.037 4.491l0.71-0.036c-0.074-1.462-0.055-2.952-0.037-4.446l-0.355-0.005zM2.182 20.92l-0.030 0.354c2.961 0.255 5.819 0.545 8.182 2.279l0.421-0.573c-2.548-1.869-5.608-2.162-8.542-2.414l-0.030 0.354zM10.544 23.266l0.355-0.001c-0.014-4.97 0.013-9.94 0.082-14.91l-0.711-0.010c-0.070 4.974-0.097 9.948-0.082 14.922l0.355-0.001zM10.626 8.35l0.258-0.244c-2.003-2.114-5.116-3.35-7.984-3.43l-0.020 0.711c2.703 0.076 5.63 1.247 7.488 3.209l0.258-0.244zM2.891 5.030l0.008-0.355c-0.242-0.005-0.485-0.003-0.727 0.004l0.023 0.71c0.229-0.007 0.459-0.009 0.688-0.004l0.008-0.355z"></path>
            <path d="M32.524 4.382c2.847-0.049 7.642-0.133 9.222 0.472 1.206 0.462 2.232 1.371 2.757 2.56 0.518 1.172 0.554 2.722 0.085 3.915-0.501 1.274-1.421 1.812-2.611 2.325 0.092 0.033 0.185 0.066 0.278 0.098 0.255 0.088 0.512 0.177 0.751 0.295 1.098 0.552 1.938 1.511 2.338 2.673 0.483 1.425 0.298 3.022-0.357 4.357-0.488 0.841-1.172 1.491-2.018 1.965-0.745 0.416-1.482 0.583-2.322 0.695-1.278 0.17-8.692 0.282-9.624-0.035-0.126-0.043-0.251-0.090-0.308-0.214-0.137-0.297-0.156-0.753-0.17-1.104l-0.004-0.097c-0.089-1.993-0.060-4.013-0.031-6.024 0.013-0.895 0.025-1.788 0.027-2.676 0.002-0.856-0.009-1.718-0.020-2.581-0.022-1.683-0.043-3.372 0.034-5.037 0.017-0.361 0.047-0.763 0.177-1.102 0.099-0.259 0.226-0.348 0.47-0.463 0.357-0.002 0.809-0.011 1.325-0.020zM39.642 15.2c-1.038-0.247-4.314-0.076-5.561-0.075l0.001 5.688c1.464 0.003 4.651 0.188 5.905-0.134 0.463-0.119 0.831-0.305 1.183-0.628 0.564-0.665 0.857-1.337 0.773-2.229-0.075-0.793-0.414-1.468-1.031-1.977-0.369-0.309-0.803-0.529-1.27-0.645zM35.115 7.267c-0.395 0.013-0.75 0.024-1.036 0.024l0.003 5.063c0.332 0.001 0.737 0.011 1.179 0.023 1.46 0.037 3.323 0.085 4.296-0.163 0.453-0.116 0.828-0.299 1.19-0.594 0.475-0.576 0.734-1.233 0.673-1.99-0.054-0.665-0.371-1.317-0.902-1.729-1-0.776-3.621-0.691-5.403-0.633z"></path>
            <path d="M61.897 15.706c-0.547-4.109-4.323-6.996-8.432-6.447-4.106 0.549-6.99 4.321-6.443 8.427s4.317 6.992 8.423 6.448c4.109-0.545 6.998-4.319 6.452-8.428zM53.946 12.437c0.834-0.041 1.569-0.027 2.309 0.423 0.83 0.506 1.346 1.37 1.571 2.299 0.319 1.316 0.244 3.129-0.496 4.3-0.53 0.839-1.27 1.21-2.206 1.416-0.898 0.090-1.789 0.006-2.559-0.51-0.811-0.544-1.284-1.433-1.467-2.374-0.261-1.336-0.179-3.073 0.629-4.217 0.554-0.785 1.293-1.172 2.219-1.336z"></path>
            <path d="M77.999 15.66c-0.567-4.108-4.363-6.974-8.47-6.395-4.090 0.577-6.942 4.354-6.377 8.446 0.565 4.091 4.335 6.954 8.428 6.401 4.11-0.556 6.986-4.343 6.419-8.451zM69.989 12.438c0.811-0.067 1.596-0.041 2.325 0.367 0.866 0.485 1.395 1.336 1.641 2.277 0.354 1.351 0.284 3.093-0.456 4.311-0.524 0.863-1.271 1.265-2.226 1.479-0.894 0.116-1.776 0.016-2.545-0.489-0.821-0.54-1.297-1.418-1.497-2.361-0.281-1.333-0.19-3.050 0.587-4.208 0.527-0.786 1.262-1.188 2.17-1.375z"></path>
            <path d="M80.991 3.775c0.056-0.005 0.112-0.009 0.168-0.011 0.557-0.020 1.799-0.128 2.177 0.383 0.161 0.217 0.185 0.672 0.205 0.94 0.085 1.132 0.016 2.316 0.016 3.453l0.001 6.695c0.792-0.941 1.703-1.803 2.538-2.709 0.825-0.894 1.617-1.923 2.531-2.719 0.218-0.19 0.383-0.29 0.664-0.367 0.584-0.159 2.698-0.277 3.143 0.040 0.114 0.081 0.21 0.238 0.202 0.381-0.040 0.637-4.249 4.788-4.983 5.514 1.35 1.962 2.711 3.916 4.085 5.861 0.342 0.496 1.314 1.561 1.189 2.176-0.027 0.134-0.133 0.251-0.251 0.316-0.631 0.348-3.056 0.119-3.813-0.128-0.541-0.544-0.982-1.33-1.417-1.962l-2.634-3.841-1.259 1.094c-0.005 1.007 0.296 3.971-0.351 4.646-0.29 0.303-0.669 0.326-1.063 0.33-0.603 0.006-1.769 0.107-2.209-0.324-0.113-1.16-0.075-2.334-0.076-3.499l-0.002-4.973 0.001-6.813c0-1.211-0.043-2.44 0.013-3.649 0.008-0.163 0.012-0.303 0.109-0.442 0.232-0.335 0.652-0.341 1.019-0.391z"></path>
            <path d="M106.601 9.308c0.795-0.017 2.377-0.193 3.092 0.103 0.268 0.111 0.39 0.385 0.51 0.635 0.509 1.061 0.842 2.284 1.252 3.392 0.713 1.928 1.481 3.835 2.204 5.759 0.42-1.086 3.322-9.174 3.797-9.577 0.233-0.197 0.675-0.24 0.966-0.248 0.612-0.018 1.755-0.153 2.219 0.274 0.117 0.276 0.102 0.426 0.034 0.722-0.238 1.032-0.743 2.104-1.113 3.098l-2.38 6.398-1.609 4.362c-0.323 0.88-0.608 1.822-1.028 2.659-0.234 0.466-0.518 0.904-0.875 1.285-0.855 0.916-1.974 1.31-3.206 1.353-0.528 0.018-1.434 0.117-1.841-0.261-0.26-0.526-0.282-1.753-0.114-2.32 0.163-0.552 1.373-0.447 1.86-0.721 0.785-0.441 0.999-1.311 1.201-2.119-0.631-1.906-5.376-13.56-5.33-14.219 0.020-0.286 0.155-0.409 0.362-0.574z"></path>
            <path d="M98.806 9.252c0.398-0.061 0.835-0.044 1.24-0.040 1.609 0.016 3.409 0.355 4.567 1.565 0.532 0.556 0.921 1.397 0.862 2.181-0.010 0.134-0.047 0.325-0.161 0.406-0.578 0.408-2.155 0.328-2.842 0.236-0.609-0.082-0.562-0.489-0.938-0.935-0.414-0.491-1.019-0.732-1.649-0.777-0.701-0.051-1.587 0.177-2.109 0.669-0.23 0.217-0.473 0.777-0.436 1.091 0.162 1.366 4.012 1.542 5.12 1.821 0.94 0.237 1.907 0.589 2.658 1.221 0.712 0.6 1.034 1.417 1.107 2.332 0.089 1.127-0.24 2.206-0.987 3.059-1.299 1.482-3.192 1.918-5.076 2.056-1.448 0.049-3.006-0.149-4.308-0.818-0.945-0.486-1.798-1.244-2.113-2.29-0.129-0.427-0.215-0.928 0.012-1.333 0.658-0.516 2.457-0.314 3.256-0.285 0.269 0.41 0.434 0.891 0.803 1.231 0.621 0.572 1.536 0.745 2.356 0.704 0.67-0.033 1.384-0.224 1.833-0.756 0.248-0.294 0.392-0.67 0.355-1.058-0.148-1.55-3.966-1.544-5.147-1.817-0.853-0.196-1.723-0.542-2.414-1.090-0.728-0.578-1.193-1.355-1.281-2.287-0.098-1.137 0.252-2.266 0.977-3.148 1.094-1.326 2.667-1.776 4.316-1.937z"></path>
        </symbol>
        <symbol id="icon-minus" viewBox="0 0 224 32">
            <path d="M0 0h224v32h-224v-32z"></path>
        </symbol>
        <symbol id="icon-phone" viewBox="0 0 30 32">
            <path d="M23.532 17.813c-0.148-0.149-0.325-0.267-0.519-0.347s-0.402-0.122-0.612-0.122c-0.21 0-0.418 0.041-0.612 0.122s-0.37 0.198-0.519 0.347l-2.55 2.55c-1.182-0.352-3.389-1.152-4.787-2.55s-2.198-3.605-2.55-4.787l2.55-2.55c0.149-0.148 0.267-0.325 0.347-0.519s0.122-0.402 0.122-0.612c0-0.21-0.041-0.418-0.122-0.612s-0.198-0.37-0.347-0.519l-6.4-6.4c-0.148-0.149-0.325-0.267-0.519-0.347s-0.402-0.122-0.612-0.122c-0.21 0-0.418 0.041-0.612 0.122s-0.37 0.198-0.519 0.347l-4.339 4.339c-0.608 0.608-0.95 1.443-0.938 2.296 0.037 2.278 0.64 10.192 6.877 16.429s14.15 6.838 16.43 6.877h0.045c0.845 0 1.643-0.333 2.248-0.938l4.339-4.339c0.149-0.148 0.267-0.325 0.347-0.519s0.122-0.402 0.122-0.612c0-0.21-0.041-0.418-0.122-0.612s-0.198-0.371-0.347-0.519l-6.4-6.402zM23.328 28.552c-1.997-0.034-8.829-0.57-14.197-5.939-5.386-5.386-5.907-12.242-5.939-14.198l3.208-3.208 4.138 4.138-2.069 2.069c-0.188 0.188-0.326 0.42-0.402 0.675s-0.087 0.524-0.033 0.785c0.038 0.184 0.978 4.547 3.634 7.203s7.019 3.595 7.203 3.634c0.26 0.056 0.53 0.046 0.785-0.030s0.487-0.214 0.674-0.403l2.070-2.069 4.138 4.138-3.21 3.208z"></path>
        </symbol>
        <symbol id="icon-plus" viewBox="0 0 32 32">
            <path d="M32 13.714h-13.714v-13.714h-4.571v13.714h-13.714v4.571h13.714v13.714h4.571v-13.714h13.714v-4.571z"></path>
        </symbol>
        <symbol id="icon-right" viewBox="0 0 21 32">
            <path d="M4.552 31.866l15.219-15.219-15.219-15.219-3.771 3.771 11.448 11.448-11.448 11.448 3.771 3.771z"></path>
        </symbol>
        <symbol id="icon-star" viewBox="0 0 32 32">
            <path d="M7.226 19.717l-2.384 10.323c-0.074 0.313-0.052 0.64 0.064 0.94s0.318 0.558 0.582 0.74c0.264 0.183 0.577 0.281 0.899 0.283s0.635-0.093 0.902-0.273l8.712-5.808 8.712 5.808c0.273 0.181 0.594 0.274 0.921 0.267s0.644-0.114 0.908-0.307c0.264-0.193 0.463-0.462 0.57-0.771s0.116-0.644 0.028-0.959l-2.926-10.24 7.258-6.531c0.232-0.209 0.399-0.482 0.477-0.785s0.068-0.622-0.033-0.918-0.285-0.556-0.532-0.749c-0.247-0.192-0.544-0.308-0.856-0.333l-9.122-0.726-3.947-8.738c-0.126-0.281-0.33-0.52-0.589-0.688s-0.56-0.257-0.868-0.257c-0.308 0-0.61 0.089-0.868 0.257s-0.463 0.407-0.589 0.688l-3.947 8.738-9.122 0.725c-0.306 0.024-0.599 0.136-0.844 0.323s-0.43 0.439-0.534 0.728c-0.104 0.289-0.123 0.602-0.055 0.902s0.223 0.573 0.443 0.788l6.742 6.571zM11.79 12.795c0.286-0.023 0.56-0.121 0.794-0.286s0.42-0.39 0.537-0.651l2.878-6.37 2.878 6.37c0.117 0.261 0.303 0.486 0.537 0.651s0.508 0.264 0.794 0.286l6.355 0.504-5.234 4.71c-0.454 0.41-0.635 1.040-0.469 1.629l2.005 7.016-5.978-3.986c-0.262-0.176-0.571-0.27-0.887-0.27s-0.625 0.094-0.887 0.27l-6.246 4.165 1.68-7.274c0.062-0.268 0.053-0.546-0.024-0.81s-0.221-0.503-0.418-0.694l-4.861-4.739 6.544-0.522z"></path>
        </symbol>
        <symbol id="icon-top" viewBox="0 0 48 32">
            <path d="M1.172 25.172l5.656 5.656 17.172-17.172 17.172 17.172 5.656-5.656-22.828-22.828-22.828 22.828z"></path>
        </symbol>
        <symbol id="icon-check1" viewBox="0 0 40 32">
            <path d="M33.782 1.020c0.691-0.662 1.611-1.027 2.565-1.020s1.869 0.387 2.55 1.059c0.681 0.672 1.076 1.584 1.101 2.543s-0.321 1.891-0.966 2.598l-19.578 24.617c-0.337 0.365-0.743 0.657-1.195 0.86s-0.939 0.312-1.434 0.322c-0.495 0.009-0.986-0.082-1.445-0.268s-0.876-0.463-1.226-0.815l-12.984-13.054c-0.362-0.339-0.652-0.747-0.853-1.201s-0.309-0.944-0.318-1.441 0.082-0.99 0.267-1.451c0.185-0.461 0.461-0.879 0.81-1.231s0.766-0.628 1.224-0.814 0.949-0.277 1.443-0.269c0.494 0.009 0.981 0.118 1.433 0.32s0.858 0.494 1.195 0.857l10.275 10.325 17.042-21.83c0.031-0.038 0.063-0.074 0.098-0.109h-0.005z"></path>
        </symbol>
    </defs>
</svg>