<svg aria-hidden="true" style="position: absolute; width: 0; height: 0; overflow: hidden;" version="1.1" xmlns="http://www.w3.org/2000/svg" xmlns:xlink="http://www.w3.org/1999/xlink">
<defs>
<symbol id="icon-check" viewBox="0 0 32 32">
<path d="M13.333 20.781l-4.391-4.391-1.885 1.885 6.276 6.276 12.943-12.943-1.885-1.885z"></path>
</symbol>
<symbol id="icon-chevron-down" viewBox="0 0 32 32">
<path d="M21.724 11.057l-5.724 5.724-5.724-5.724-1.885 1.885 7.609 7.609 7.609-7.609z"></path>
</symbol>
<symbol id="icon-chevron-left" viewBox="0 0 32 32">
<path d="M17.724 8.391l-7.609 7.609 7.609 7.609 1.885-1.885-5.724-5.724 5.724-5.724z"></path>
</symbol>
<symbol id="icon-chevron-right" viewBox="0 0 32 32">
<path d="M12.943 22.6l7.609-7.609-7.609-7.609-1.885 1.885 5.724 5.724-5.724 5.724z"></path>
</symbol>
<symbol id="icon-chevron-up" viewBox="0 0 32 32">
<path d="M8.391 19.057l1.885 1.885 5.724-5.724 5.724 5.724 1.885-1.885-7.609-7.609z"></path>
</symbol>
<symbol id="icon-down-arrow-alt" viewBox="0 0 32 32">
<path d="M24.943 16.943l-1.885-1.885-5.724 5.724v-12.781h-2.667v12.781l-5.724-5.724-1.885 1.885 8.943 8.943z"></path>
</symbol>
<symbol id="icon-envelope" viewBox="0 0 32 32">
<path d="M26.667 5.333h-21.333c-1.471 0-2.667 1.196-2.667 2.667v16c0 1.471 1.196 2.667 2.667 2.667h21.333c1.471 0 2.667-1.196 2.667-2.667v-16c0-1.471-1.196-2.667-2.667-2.667zM26.667 8v0.681l-10.667 8.297-10.667-8.296v-0.683zM5.333 24v-11.941l9.848 7.66c0.223 0.176 0.508 0.283 0.819 0.283s0.596-0.107 0.821-0.285l-0.003 0.002 9.848-7.66 0.003 11.941z"></path>
</symbol>
<symbol id="icon-Favicon" viewBox="0 0 32 32">
<path fill="#fceee6" style="fill: var(--color1, #fceee6)" d="M0 0h32v32h-32z"></path>
<path fill="#010101" style="fill: var(--color2, #010101)" d="M24.42 6.017c0.34-0.018 0.706-0.037 1.013 0.030 0.173 0.037 0.287 0.1 0.386 0.247 0.064 0.338 0.12 0.672 0.133 1.016 0.028 0.728 0.020 1.462 0.014 2.194q-0.006 0.498-0.006 0.995l-0.001 6.309c0 0.207 0.007 0.555 0.014 0.98 0.027 1.487 0.070 3.904-0.068 4.437-0.099 0.381-0.3 0.557-0.64 0.752-0.279 0.032-0.604 0.050-0.933 0.051h-0.001q-0.248 0.005-0.49 0.015c-1.514 0.075-3.113 0.225-4.503 0.85-0.411 0.179-0.764 0.382-1.091 0.619l0.017-0.012c-0.204 0.159-0.384 0.316-0.556 0.482l0.002-0.002c-0.498 0.46-1.074 0.99-1.617 1.019-0.626 0.033-1.22-0.487-1.767-0.968-0.26-0.228-0.51-0.448-0.75-0.594-0.539-0.328-1.161-0.611-1.817-0.818l-0.061-0.017c-1.069-0.34-2.201-0.514-3.322-0.579-0.17-0.010-0.344-0.009-0.519-0.008-0.325 0-0.655 0.001-0.962-0.065-0.267-0.058-0.44-0.19-0.64-0.363-0.147-0.34-0.193-0.76-0.211-1.127-0.016-0.372-0.024-0.809-0.024-1.248 0-0.257 0.003-0.514 0.009-0.77l-0.001 0.038q0.007-0.44 0.008-0.878l0.004-5.58-0.005-4.221c0-0.184-0.007-0.385-0.016-0.592-0.022-0.561-0.047-1.172 0.078-1.65 0.070-0.263 0.225-0.38 0.452-0.52 2.488-0.157 5.205 0.346 7.391 1.53 0.726 0.392 1.381 0.874 2.042 1.36 0.372-0.27 0.746-0.54 1.13-0.794 2.057-1.368 4.508-2.045 6.99-2.105q0.152-0.004 0.318-0.013zM24.134 7.912c-0.302 0.003-0.621-0.016-0.92 0.023-2.041 0.18-4.66 0.906-6.047 2.488-0.053 0.060-0.109 0.128-0.163 0.197l-0.008 0.011-0.003 12.425c0.227-0.16 0.451-0.326 0.682-0.482 1.907-1.109 4.294-1.299 6.468-1.451 0-4.401 0.060-8.81-0.010-13.21zM7.86 7.915c-0.047 1.838-0.036 3.683-0.026 5.525q0.006 1.135 0.008 2.266c0 0.554-0.008 1.112-0.015 1.671v0.005c-0.016 1.237-0.032 2.481 0.031 3.705 2.513 0.21 5.036 0.452 7.13 1.946q-0.020-6.184 0.070-12.369c-1.646-1.69-4.22-2.688-6.594-2.753q-0.302-0.005-0.604 0.004z"></path>
<path fill="#010101" style="fill: var(--color2, #010101)" d="M24.42 6.017l0.008 0.152zM25.433 6.047l0.033-0.15zM25.819 6.294l0.15-0.028-0.006-0.031-0.017-0.026zM25.952 7.31l-0.153 0.005zM25.966 9.504l0.152 0.001zM25.96 10.499h0.152zM25.959 16.808h-0.153zM25.973 17.788l0.153-0.003zM25.905 22.225l-0.148-0.039zM25.265 22.977l0.020 0.151 0.030-0.004 0.026-0.015zM24.331 23.028l-0.003-0.152zM23.841 23.043l-0.007-0.153zM19.338 23.893l0.062 0.14zM18.264 24.5l0.091 0.123zM17.71 24.98l-0.104-0.112zM16.093 26l0.008 0.152zM14.326 25.032l0.1-0.114zM13.576 24.438l-0.079 0.13zM11.698 23.603l0.046-0.145zM8.376 23.024l-0.010 0.153zM7.857 23.016v-0.153zM6.895 22.951l-0.032 0.15zM6.255 22.588l-0.14 0.060 0.013 0.033 0.027 0.023zM6.044 21.461l0.152-0.008zM6.028 19.481l-0.153-0.002zM6.036 18.603h-0.153zM6.040 13.023h0.153zM6.035 8.802h-0.153zM6.019 8.21l-0.152 0.006zM6.097 6.56l-0.147-0.040zM6.549 6.040l-0.010-0.152-0.038 0.002-0.033 0.020zM13.94 7.57l-0.072 0.134zM15.982 8.93l-0.090 0.123 0.090 0.066 0.090-0.066zM17.112 8.136l0.084 0.127zM24.102 6.031l0.004 0.153zM24.134 7.913l0.152-0.002-0.002-0.152-0.152 0.001zM23.214 7.936l0.014 0.152 0.006-0.001zM17.167 10.424l-0.115-0.1zM16.996 10.632l-0.121-0.094-0.032 0.042v0.052zM16.993 23.057h-0.153v0.295l0.241-0.17zM17.675 22.575l-0.077-0.132-0.009 0.006zM24.143 21.124l0.011 0.152 0.142-0.010v-0.142zM7.861 7.915l-0.005-0.153-0.144 0.005-0.004 0.144zM7.835 13.44l-0.153 0.001zM7.843 15.706h-0.153zM7.828 17.377l-0.153-0.002v0.002zM7.828 17.382l0.153 0.002v-0.002zM7.859 21.087l-0.152 0.008 0.007 0.133 0.132 0.011zM14.989 23.033l-0.090 0.124 0.243 0.174-0.001-0.298zM15.059 10.664l0.152 0.002 0.001-0.063-0.044-0.046zM8.464 7.911l0.004-0.153h-0.001zM24.42 6.017l0.008 0.152c0.345-0.018 0.69-0.034 0.973 0.027l0.032-0.15 0.033-0.148c-0.331-0.072-0.72-0.051-1.054-0.034zM25.433 6.047l-0.032 0.15c0.076 0.016 0.13 0.036 0.173 0.062 0.041 0.026 0.080 0.062 0.118 0.12l0.254-0.17c-0.056-0.085-0.126-0.155-0.209-0.208l-0.003-0.002c-0.077-0.047-0.167-0.082-0.263-0.1l-0.005-0.001zM25.819 6.294l-0.15 0.028c0.063 0.337 0.118 0.662 0.13 0.993l0.153-0.005 0.153-0.006c-0.022-0.382-0.070-0.738-0.144-1.084l0.008 0.046zM25.952 7.31l-0.153 0.005c0.028 0.725 0.021 1.455 0.014 2.187l0.153 0.002 0.152 0.001c0.005-0.247 0.007-0.537 0.007-0.829 0-0.482-0.007-0.963-0.022-1.442l0.002 0.070zM25.966 9.504l-0.153-0.002q-0.005 0.5-0.006 0.997h0.305q0-0.495 0.006-0.994zM25.96 10.499h-0.153v6.309h0.304l0.002-6.309zM25.959 16.808h-0.153c0 0.209 0.007 0.56 0.015 0.983l0.305-0.006c-0.008-0.425-0.014-0.772-0.015-0.978zM25.973 17.788l-0.152 0.003c0.013 0.743 0.030 1.718 0.027 2.573-0.002 0.427-0.008 0.823-0.023 1.145-0.015 0.327-0.038 0.562-0.068 0.677l0.148 0.039 0.148 0.038c0.039-0.151 0.062-0.418 0.077-0.74 0.015-0.328 0.022-0.729 0.024-1.158 0.003-0.859-0.015-1.837-0.028-2.58zM25.905 22.225l-0.148-0.039c-0.034 0.148-0.101 0.277-0.195 0.383l0.001-0.001c-0.107 0.108-0.23 0.2-0.365 0.272l-0.008 0.004 0.075 0.133 0.076 0.132c0.175-0.1 0.327-0.202 0.448-0.336 0.124-0.136 0.21-0.299 0.264-0.51zM25.265 22.977l-0.018-0.152c-0.275 0.031-0.595 0.049-0.919 0.050h-0.002l0.004 0.153 0.003 0.153c0.313-0.007 0.637-0.014 0.95-0.053zM24.331 23.028l-0.003-0.152q-0.247 0.003-0.494 0.014l0.008 0.153 0.007 0.152q0.237-0.010 0.485-0.014zM23.841 23.043l-0.007-0.153c-1.515 0.075-3.14 0.226-4.559 0.864l0.063 0.14 0.062 0.139c1.363-0.613 2.936-0.763 4.45-0.838zM19.338 23.893l-0.063-0.139c-0.377 0.17-0.762 0.372-1.101 0.623l0.090 0.123 0.091 0.123c0.302-0.218 0.645-0.415 1.009-0.576l0.036-0.014zM18.264 24.5l-0.090-0.123c-0.176 0.13-0.37 0.31-0.568 0.491l0.207 0.225c0.202-0.186 0.383-0.352 0.542-0.47zM17.71 24.98l-0.104-0.112c-0.25 0.231-0.512 0.471-0.776 0.658-0.267 0.188-0.518 0.308-0.746 0.32l0.009 0.153 0.008 0.152c0.315-0.017 0.624-0.177 0.905-0.375 0.284-0.2 0.56-0.455 0.807-0.683zM16.093 26l-0.009-0.152c-0.267 0.014-0.54-0.090-0.823-0.268s-0.559-0.42-0.834-0.663l-0.101 0.115-0.1 0.115c0.27 0.238 0.565 0.497 0.872 0.691s0.645 0.334 1.003 0.314zM14.326 25.032l0.1-0.114c-0.257-0.227-0.518-0.456-0.77-0.61l-0.080 0.13-0.079 0.13c0.225 0.138 0.465 0.348 0.728 0.579zM13.576 24.438l0.080-0.13c-0.549-0.333-1.182-0.622-1.85-0.833l-0.062-0.017-0.046 0.145-0.046 0.146c0.64 0.204 1.28 0.472 1.845 0.819zM11.698 23.603l0.046-0.145c-1.083-0.345-2.229-0.52-3.36-0.586l-0.008 0.152-0.010 0.153c1.113 0.064 2.232 0.237 3.286 0.572zM8.376 23.024l0.009-0.152c-0.175-0.010-0.354-0.010-0.528-0.010v0.306c0.177 0 0.346 0 0.51 0.009zM7.857 23.016v-0.153c-0.329 0.001-0.642 0-0.93-0.061l-0.032 0.15-0.032 0.148c0.326 0.070 0.672 0.070 0.995 0.068zM6.895 22.951l0.033-0.15c-0.228-0.048-0.376-0.159-0.574-0.329l-0.1 0.116-0.099 0.116c0.204 0.176 0.401 0.33 0.708 0.396zM6.255 22.588l0.14-0.060c-0.136-0.314-0.18-0.71-0.199-1.075l-0.305 0.016c0.018 0.369 0.065 0.813 0.223 1.18zM6.044 21.461l0.152-0.008c-0.015-0.366-0.024-0.796-0.024-1.229 0-0.261 0.003-0.521 0.009-0.78l-0.001 0.038-0.306-0.004c-0.005 0.22-0.008 0.478-0.008 0.738 0 0.44 0.009 0.879 0.027 1.315l-0.002-0.063zM6.028 19.481l0.153 0.002q0.006-0.44 0.008-0.88h-0.306q-0.001 0.435-0.008 0.877zM6.036 18.603h0.153l0.004-5.58h-0.306l-0.004 5.58zM6.040 13.023h0.153l-0.005-4.221h-0.306l0.005 4.222zM6.035 8.802h0.153c0-0.188-0.008-0.391-0.016-0.598l-0.305 0.012q0.013 0.312 0.015 0.586zM6.019 8.21l0.153-0.006c-0.023-0.568-0.045-1.154 0.073-1.606l-0.148-0.038-0.147-0.040c-0.133 0.506-0.105 1.142-0.083 1.696zM6.097 6.56l0.148 0.038c0.053-0.202 0.164-0.292 0.384-0.428l-0.16-0.26c-0.233 0.144-0.434 0.288-0.52 0.61zM6.549 6.040l0.010 0.152c2.463-0.155 5.15 0.344 7.309 1.512l0.072-0.135 0.073-0.134c-2.215-1.199-4.961-1.706-7.474-1.547zM13.94 7.57l-0.072 0.134c0.715 0.387 1.361 0.862 2.024 1.349l0.18-0.246c-0.66-0.485-1.322-0.973-2.060-1.372zM15.982 8.93l0.090 0.123c0.372-0.27 0.744-0.537 1.124-0.79l-0.085-0.127-0.084-0.127c-0.494 0.331-0.863 0.593-1.228 0.862l0.093-0.065zM17.112 8.136l0.084 0.127c2.030-1.35 4.452-2.020 6.91-2.080l-0.004-0.152-0.003-0.152c-2.507 0.060-4.987 0.743-7.072 2.13zM24.102 6.031l0.004 0.153q0.157-0.005 0.322-0.014l-0.008-0.152-0.008-0.153q-0.165 0.010-0.313 0.014zM24.134 7.913l-0.002-0.153c-0.287 0.003-0.626-0.016-0.937 0.024l0.020 0.152 0.020 0.151c0.285-0.037 0.584-0.019 0.9-0.021zM23.214 7.936l-0.013-0.153c-1.032 0.091-2.21 0.32-3.31 0.728-1.096 0.406-2.123 0.995-2.84 1.812l0.116 0.1 0.115 0.101c0.67-0.765 1.646-1.33 2.716-1.727 1.069-0.396 2.22-0.62 3.23-0.71zM17.167 10.424l-0.116-0.1q-0.091 0.105-0.176 0.214l0.12 0.094 0.122 0.093c0.061-0.078 0.115-0.143 0.17-0.207l-0.005 0.006zM16.996 10.632h-0.153l-0.003 12.425h0.306l0.003-12.425zM16.993 23.057l0.088 0.124c0.23-0.162 0.45-0.325 0.68-0.48l-0.172-0.252c-0.232 0.156-0.46 0.325-0.684 0.483zM17.675 22.575l0.076 0.132c1.872-1.088 4.222-1.278 6.403-1.43l-0.010-0.153-0.011-0.152c-2.168 0.151-4.592 0.342-6.535 1.471zM24.143 21.124h0.153c0-4.398 0.060-8.812-0.010-13.213l-0.152 0.002-0.153 0.003c0.070 4.398 0.010 8.804 0.010 13.208zM7.861 7.915l-0.153-0.004c-0.046 1.841-0.036 3.689-0.026 5.53h0.153l0.152-0.001c-0.010-1.843-0.020-3.686 0.027-5.521zM7.835 13.44l-0.153 0.001q0.007 1.134 0.008 2.265h0.305q0-1.132-0.008-2.266zM7.843 15.706h-0.153c0 0.553-0.008 1.11-0.015 1.669l0.306 0.004q0.012-0.84 0.014-1.673zM7.828 17.377h-0.153v0.005h0.306v-0.005zM7.828 17.382l-0.153-0.002c-0.016 1.236-0.032 2.486 0.032 3.715l0.305-0.016c-0.063-1.218-0.047-2.457-0.031-3.695zM7.859 21.087l-0.013 0.152c2.519 0.211 5 0.452 7.053 1.918l0.090-0.124 0.088-0.124c-2.132-1.522-4.698-1.764-7.205-1.974zM14.989 23.033h0.152q-0.020-6.184 0.070-12.367l-0.305-0.004c-0.047 3.036-0.073 6.619-0.073 10.209 0 0.76 0.001 1.521 0.004 2.281l-0-0.117zM15.059 10.664l0.109-0.107c-1.677-1.722-4.291-2.733-6.7-2.799l-0.003 0.153-0.005 0.153c2.34 0.064 4.875 1.049 6.489 2.707zM8.464 7.911l0.003-0.153c-0.068-0.001-0.148-0.002-0.228-0.002-0.135 0-0.27 0.002-0.404 0.007l0.020-0 0.010 0.306q0.298-0.010 0.595-0.004z"></path>
</symbol>
<symbol id="icon-left-arrow-alt" viewBox="0 0 32 32">
<path d="M16.943 23.057l-5.724-5.724h12.781v-2.667h-12.781l5.724-5.724-1.885-1.885-8.943 8.943 8.943 8.943z"></path>
</symbol>
<symbol id="icon-logo-footer" viewBox="0 0 74 32">
<path fill="#fefefd" style="fill: var(--color3, #fefefd)" d="M2.14 16.698l-0.002 0.166 0.002-0.163z"></path>
<path fill="#fefefd" style="fill: var(--color3, #fefefd)" d="M13.714 8.552c0.237-0.012 0.493-0.026 0.707 0.023 0.121 0.026 0.201 0.071 0.269 0.176 0.045 0.242 0.084 0.482 0.093 0.727 0.019 0.522 0.015 1.049 0.010 1.574q-0.004 0.357-0.005 0.713v4.523c0 0.149 0.003 0.399 0.009 0.703 0.019 1.066 0.048 2.799-0.047 3.181-0.069 0.273-0.209 0.4-0.446 0.54-0.212 0.026-0.432 0.032-0.652 0.037q-0.173 0.003-0.341 0.009c-1.057 0.054-2.172 0.163-3.142 0.611-0.259 0.121-0.52 0.262-0.748 0.435-0.142 0.114-0.268 0.227-0.389 0.346l0.001-0.001c-0.347 0.329-0.749 0.709-1.127 0.729-0.437 0.024-0.851-0.349-1.232-0.694-0.182-0.164-0.357-0.321-0.523-0.425-0.376-0.235-0.81-0.438-1.268-0.587l-0.042-0.012c-0.745-0.244-1.536-0.368-2.318-0.415q-0.179-0.009-0.362-0.006c-0.227 0-0.457 0.002-0.67-0.046-0.187-0.041-0.307-0.136-0.447-0.259-0.103-0.244-0.134-0.546-0.147-0.809-0.011-0.267-0.017-0.58-0.017-0.895 0-0.185 0.002-0.369 0.006-0.553l-0 0.027q0.004-0.316 0.005-0.629l0.003-4.001-0.003-3.028c0-0.132-0.006-0.276-0.011-0.424-0.016-0.402-0.033-0.841 0.054-1.184 0.048-0.189 0.157-0.272 0.315-0.372 1.736-0.112 3.632 0.247 5.156 1.096 0.507 0.282 0.963 0.627 1.424 0.976 0.259-0.193 0.521-0.387 0.787-0.569 1.436-0.981 3.146-1.465 4.878-1.508q0.106-0.003 0.221-0.010zM13.514 9.911c-0.21 0.002-0.432-0.011-0.641 0.016-1.424 0.129-3.252 0.649-4.221 1.784-0.035 0.042-0.074 0.091-0.111 0.141l-0.006 0.009-0.003 8.909c0.158-0.115 0.315-0.233 0.476-0.346 1.331-0.795 2.996-0.931 4.513-1.040 0-3.157 0.041-6.319-0.007-9.474zM2.163 9.912c-0.033 1.319-0.026 2.642-0.019 3.963q0.005 0.813 0.006 1.623-0.002 0.597-0.010 1.199v0.003c-0.011 0.887-0.022 1.78 0.022 2.657 1.752 0.151 3.512 0.324 4.972 1.395q-0.013-4.434 0.049-8.868c-1.148-1.212-2.944-1.928-4.6-1.975-0.048-0.001-0.105-0.002-0.162-0.002-0.091 0-0.181 0.002-0.271 0.005l0.013-0z"></path>
<path fill="#fefefd" style="fill: var(--color3, #fefefd)" d="M13.714 8.552l0.011 0.211zM14.421 8.574l-0.046 0.206zM14.69 8.751l0.208-0.038-0.007-0.042-0.023-0.035zM14.783 9.478l-0.211 0.009zM14.793 11.052l0.211 0.002zM14.788 16.289h-0.212zM14.797 16.992l0.212-0.003zM14.75 20.173l0.205 0.052zM14.304 20.713l0.026 0.209 0.043-0.005 0.038-0.023zM13.652 20.75l-0.004-0.212zM13.311 20.759l-0.011-0.211zM10.169 21.37l0.088 0.192zM9.421 21.805l0.127 0.169zM9.033 22.15l-0.145-0.154zM7.906 22.879l0.011 0.211zM6.673 22.186l0.141-0.157zM6.15 21.76l0.112-0.179zM4.84 21.161l0.066-0.201zM2.522 20.745l-0.013 0.211zM2.16 20.739v-0.211zM1.489 20.694l-0.046 0.207zM1.042 20.434l-0.195 0.081 0.018 0.045 0.036 0.031zM0.895 19.625l0.211-0.010zM0.884 18.205l-0.211-0.003zM0.889 17.577h-0.211zM0.893 13.576h0.212zM0.889 10.548h-0.211zM0.878 10.124l-0.212 0.008zM0.932 8.94l-0.205-0.052zM1.247 8.568l-0.013-0.211-0.054 0.003-0.046 0.029zM6.403 9.664l-0.103 0.185zM7.828 10.64l-0.128 0.169 0.127 0.095 0.127-0.094zM8.615 10.070l0.12 0.175zM13.493 8.562l0.005 0.211zM13.514 9.911l0.211-0.003-0.003-0.21-0.21 0.002zM12.873 9.927l0.019 0.211 0.009-0.002zM8.653 11.711l-0.16-0.137zM8.535 11.861l-0.169-0.126-0.043 0.056v0.070zM8.533 20.77h-0.211v0.415l0.336-0.244zM9.008 20.424l-0.108-0.182-0.007 0.004-0.005 0.004zM13.521 19.384l0.015 0.21 0.196-0.014v-0.196zM2.162 9.911l-0.007-0.211-0.199 0.007-0.005 0.199zM2.143 13.874l-0.211 0.002zM2.149 15.498h-0.211zM2.14 16.696l-0.212-0.003v0.003zM2.14 16.7l0.211 0.003v-0.003zM2.161 19.357l-0.211 0.010 0.009 0.184 0.184 0.016zM7.133 20.752l-0.125 0.17 0.337 0.248v-0.419zM7.183 11.883l0.211 0.003 0.001-0.086-0.059-0.061zM2.583 9.909l0.006-0.211h-0.001zM13.713 8.551l0.011 0.211c0.245-0.013 0.469-0.023 0.649 0.017l0.047-0.206 0.046-0.207c-0.248-0.055-0.534-0.039-0.764-0.026zM14.42 8.573l-0.046 0.206c0.033 0.006 0.062 0.016 0.088 0.032l-0.001-0.001c0.015 0.009 0.031 0.023 0.052 0.055l0.354-0.231c-0.089-0.139-0.231-0.238-0.397-0.267l-0.004-0.001zM14.689 8.75l-0.208 0.038c0.044 0.24 0.081 0.467 0.090 0.697l0.422-0.016c-0.015-0.278-0.049-0.538-0.102-0.791l0.006 0.034zM14.782 9.477l-0.211 0.009c0.019 0.516 0.015 1.038 0.009 1.563l0.212 0.003 0.211 0.002c0.005-0.524 0.009-1.055-0.010-1.583zM14.793 11.051l-0.212-0.003q-0.004 0.357-0.005 0.716h0.423q0-0.355 0.005-0.712zM14.787 11.765h-0.212v4.523h0.423v-4.523zM14.787 16.288h-0.212c0 0.151 0.004 0.403 0.009 0.707l0.423-0.007c-0.004-0.189-0.008-0.434-0.009-0.68l-0-0.020zM14.796 16.991l-0.211 0.003c0.009 0.534 0.022 1.231 0.019 1.842-0.001 0.306-0.005 0.588-0.016 0.817-0.010 0.236-0.026 0.394-0.044 0.467l0.205 0.051 0.205 0.052c0.029-0.121 0.046-0.322 0.056-0.551 0.010-0.237 0.016-0.527 0.016-0.835 0.002-0.617-0.010-1.319-0.019-1.851zM14.749 20.172l-0.205-0.052c-0.019 0.090-0.059 0.168-0.115 0.232l0.001-0.001c-0.051 0.058-0.122 0.112-0.234 0.177l0.107 0.182 0.107 0.183c0.125-0.073 0.242-0.153 0.337-0.262 0.099-0.112 0.164-0.243 0.207-0.408zM14.303 20.712l-0.026-0.21c-0.2 0.026-0.41 0.031-0.631 0.035l0.005 0.212 0.004 0.211c0.24-0.002 0.475-0.016 0.706-0.042l-0.031 0.003zM13.651 20.749l-0.004-0.212c-0.112 0.003-0.232 0.005-0.348 0.010l0.011 0.211 0.010 0.211q0.162-0.007 0.335-0.009zM13.31 20.759l-0.011-0.211c-1.058 0.055-2.21 0.163-3.22 0.631l0.089 0.191 0.088 0.192c0.931-0.43 2.010-0.538 3.064-0.592zM10.168 21.369l-0.089-0.191c-0.301 0.136-0.559 0.289-0.799 0.467l0.012-0.008 0.128 0.168 0.127 0.169c0.212-0.161 0.457-0.295 0.709-0.412zM9.42 21.804l-0.128-0.168c-0.128 0.097-0.268 0.229-0.406 0.359l0.145 0.154 0.145 0.153c0.142-0.134 0.265-0.249 0.37-0.329zM9.032 22.149l-0.145-0.154c-0.163 0.16-0.336 0.311-0.518 0.453l-0.014 0.010q-0.271 0.198-0.463 0.209l0.012 0.211 0.011 0.211c0.251-0.014 0.487-0.143 0.688-0.289 0.204-0.149 0.401-0.336 0.573-0.498zM7.905 22.878l-0.012-0.211c-0.154 0.009-0.32-0.052-0.51-0.175-0.212-0.149-0.398-0.302-0.571-0.467l0.002 0.002-0.141 0.157-0.142 0.157c0.189 0.17 0.4 0.361 0.623 0.506s0.48 0.259 0.763 0.242zM6.672 22.185l0.141-0.157c-0.177-0.16-0.367-0.33-0.551-0.447l-0.112 0.179-0.113 0.178c0.147 0.093 0.309 0.237 0.494 0.404zM6.149 21.759l0.112-0.179c-0.39-0.245-0.84-0.456-1.315-0.609l-0.043-0.012-0.065 0.201-0.066 0.201c0.482 0.155 0.9 0.35 1.287 0.591l-0.024-0.014zM4.839 21.16l0.066-0.201c-0.767-0.251-1.576-0.378-2.371-0.425l-0.012 0.211-0.013 0.211c0.77 0.045 1.54 0.168 2.265 0.405zM2.521 20.745l0.013-0.211c-0.126-0.008-0.256-0.007-0.376-0.006l0.001 0.211v0.211c0.125 0 0.24-0.001 0.349 0.006zM2.159 20.739v-0.211c-0.233 0-0.438 0-0.625-0.041l-0.045 0.206-0.046 0.207c0.241 0.053 0.495 0.052 0.717 0.050zM1.488 20.693l0.046-0.206c-0.131-0.029-0.217-0.093-0.353-0.212l-0.14 0.157-0.14 0.158c0.144 0.129 0.299 0.254 0.541 0.309zM1.041 20.433l0.195-0.082c-0.087-0.208-0.118-0.477-0.13-0.737l-0.423 0.021c0.013 0.265 0.045 0.599 0.163 0.88zM0.894 19.625l0.211-0.010c-0.010-0.261-0.016-0.568-0.016-0.876 0-0.187 0.002-0.373 0.007-0.559l-0 0.028-0.423-0.005c-0.006 0.473-0.012 0.955 0.011 1.433zM0.883 18.205l0.212 0.003q0.004-0.316 0.005-0.631h-0.422q0 0.311-0.005 0.626zM0.888 17.576h0.212l0.003-4.001h-0.422l-0.003 4.001zM0.892 13.575h0.212l-0.003-3.028h-0.422l0.003 3.028zM0.888 10.547h0.212c0-0.137-0.007-0.285-0.012-0.432l-0.423 0.017q0.010 0.224 0.012 0.415zM0.877 10.123l0.211-0.009c-0.016-0.412-0.030-0.816 0.048-1.123l-0.205-0.052-0.205-0.053c-0.096 0.379-0.076 0.851-0.061 1.244zM0.931 8.939l0.205 0.052c0.027-0.105 0.075-0.151 0.224-0.246l-0.114-0.178-0.113-0.178c-0.167 0.106-0.337 0.227-0.406 0.498zM1.246 8.567l0.014 0.21c1.7-0.11 3.555 0.244 5.040 1.071l0.104-0.185 0.102-0.184c-1.565-0.871-3.502-1.237-5.272-1.123zM6.403 9.663l-0.103 0.185c0.492 0.273 0.937 0.609 1.399 0.96l0.128-0.169 0.127-0.169c-0.458-0.347-0.927-0.701-1.449-0.991zM7.827 10.639l0.126 0.169c0.259-0.193 0.518-0.384 0.781-0.564l-0.239-0.349c-0.271 0.185-0.536 0.381-0.796 0.574zM8.614 10.070l0.12 0.175c1.398-0.955 3.066-1.43 4.763-1.472l-0.005-0.21-0.006-0.211c-1.766 0.043-3.517 0.538-4.99 1.545zM13.492 8.561l0.005 0.211c0.074-0.002 0.153-0.006 0.227-0.010l-0.023-0.422q-0.116 0.007-0.216 0.010zM13.514 9.911l-0.002-0.212c-0.19 0.002-0.441-0.012-0.667 0.017l0.028 0.21 0.028 0.209c0.19-0.026 0.384-0.012 0.615-0.014zM12.873 9.926l-0.019-0.21c-0.861 0.078-1.654 0.265-2.4 0.548l0.062-0.021c-0.775 0.296-1.509 0.726-2.024 1.33l0.161 0.137 0.161 0.137c0.452-0.531 1.116-0.928 1.853-1.209 0.651-0.249 1.406-0.426 2.191-0.499l0.034-0.003zM8.652 11.71l-0.161-0.136q-0.067 0.079-0.125 0.159l0.338 0.253q0.055-0.073 0.111-0.14zM8.534 11.86h-0.211l-0.003 8.909h0.423l0.002-8.908zM8.532 20.769l0.125 0.171c0.163-0.119 0.313-0.233 0.471-0.343l-0.12-0.173-0.121-0.174c-0.163 0.112-0.325 0.237-0.478 0.348zM9.008 20.423l0.108 0.182c1.281-0.765 2.894-0.901 4.419-1.011l-0.015-0.21-0.016-0.211c-1.507 0.108-3.225 0.245-4.605 1.070zM13.52 19.383h0.211c0-3.152 0.042-6.32-0.007-9.476l-0.211 0.003-0.211 0.003c0.048 3.153 0.007 6.31 0.006 9.47zM2.162 9.911l-0.211-0.005c-0.033 1.322-0.026 2.649-0.019 3.97l0.211-0.002h0.212c-0.007-1.322-0.014-2.643 0.018-3.958zM2.143 13.874l-0.211 0.002q0.005 0.812 0.006 1.622h0.423q-0.001-0.812-0.006-1.624zM2.149 15.498h-0.211q-0.002 0.595-0.010 1.196l0.423 0.005q0.009-0.602 0.010-1.201zM2.14 16.696h-0.211v0.003h0.423v-0.003zM2.14 16.7l-0.212-0.003c-0.011 0.887-0.022 1.785 0.022 2.671l0.211-0.011 0.211-0.010c-0.043-0.869-0.033-1.756-0.022-2.644zM2.161 19.357l-0.018 0.211c1.761 0.151 3.459 0.323 4.865 1.354l0.251-0.341c-1.515-1.111-3.335-1.285-5.079-1.436zM7.133 20.752h0.211q-0.012-4.433 0.049-8.865l-0.423-0.007q-0.062 4.437-0.048 8.874zM7.183 11.883l0.153-0.145c-1.191-1.258-3.042-1.992-4.747-2.040l-0.006 0.211-0.006 0.212c1.608 0.045 3.348 0.741 4.452 1.908zM2.583 9.909l0.005-0.211c-0.050-0.001-0.11-0.002-0.17-0.002-0.092 0-0.185 0.002-0.276 0.005l0.013-0 0.007 0.211 0.007 0.212q0.205-0.008 0.409-0.003zM20.203 9.525c1.693-0.029 4.545-0.080 5.483 0.28 0.718 0.275 1.328 0.816 1.64 1.522 0.308 0.696 0.329 1.618 0.050 2.327-0.297 0.758-0.845 1.078-1.552 1.383l0.164 0.058c0.152 0.052 0.305 0.105 0.447 0.176 0.65 0.332 1.145 0.891 1.385 1.57l0.006 0.020c0.287 0.848 0.177 1.797-0.212 2.59-0.291 0.493-0.698 0.89-1.184 1.159l-0.016 0.008c-0.443 0.248-0.881 0.348-1.381 0.413-0.759 0.101-5.168 0.168-5.722-0.021-0.074-0.026-0.149-0.054-0.183-0.127-0.081-0.177-0.093-0.448-0.101-0.657l-0.003-0.057c-0.053-1.185-0.035-2.385-0.018-3.581q0.013-0.799 0.016-1.591c0.002-0.509-0.005-1.021-0.011-1.534-0.013-1.002-0.026-2.006 0.020-2.995 0.010-0.214 0.029-0.454 0.105-0.656 0.060-0.154 0.135-0.208 0.279-0.276 0.213-0.001 0.482-0.006 0.788-0.011zM24.436 15.957c-0.617-0.147-2.565-0.045-3.306-0.045v3.382c0.871 0.003 2.766 0.112 3.511-0.079 0.276-0.071 0.495-0.182 0.704-0.374 0.336-0.395 0.51-0.795 0.459-1.325-0.036-0.476-0.266-0.892-0.61-1.174l-0.003-0.002c-0.211-0.176-0.464-0.309-0.742-0.38l-0.013-0.003zM21.744 11.24c-0.235 0.008-0.446 0.014-0.616 0.015l0.002 3.010c0.197 0 0.439 0.007 0.701 0.014 0.868 0.023 1.976 0.051 2.554-0.097 0.27-0.069 0.493-0.178 0.708-0.354 0.283-0.342 0.437-0.733 0.4-1.183-0.030-0.416-0.232-0.78-0.534-1.025l-0.003-0.002c-0.595-0.462-2.154-0.411-3.213-0.377zM37.668 16.258c-0.277-2.222-2.155-3.925-4.429-3.925-2.464 0-4.462 1.998-4.462 4.462 0 0.226 0.017 0.448 0.049 0.665l-0.003-0.024c0.324 2.173 2.177 3.821 4.416 3.821 2.464 0 4.462-1.998 4.462-4.462 0-0.189-0.012-0.376-0.035-0.559l0.002 0.022zM32.941 14.314c0.496-0.025 0.933-0.016 1.373 0.251 0.494 0.302 0.801 0.816 0.934 1.367 0.19 0.783 0.145 1.861-0.294 2.557-0.316 0.499-0.755 0.72-1.312 0.842-0.534 0.054-1.064 0.003-1.521-0.303-0.483-0.324-0.764-0.853-0.873-1.412-0.155-0.795-0.106-1.827 0.374-2.508 0.329-0.467 0.77-0.697 1.32-0.794zM47.243 16.23c-0.303-2.192-2.164-3.862-4.416-3.862-2.461 0-4.456 1.995-4.456 4.456 0 0.221 0.016 0.438 0.047 0.65l-0.003-0.024c0.338 2.154 2.181 3.783 4.405 3.783 2.461 0 4.456-1.995 4.456-4.456 0-0.193-0.012-0.382-0.036-0.568l0.002 0.022zM42.48 14.314c0.482-0.039 0.949-0.024 1.382 0.219 0.515 0.288 0.83 0.795 0.976 1.354 0.21 0.803 0.169 1.839-0.272 2.563-0.311 0.513-0.755 0.752-1.323 0.88-0.532 0.069-1.056 0.009-1.514-0.291-0.488-0.32-0.771-0.843-0.891-1.404-0.167-0.792-0.112-1.814 0.35-2.502 0.313-0.468 0.75-0.707 1.29-0.818zM49.022 9.164q0.049-0.005 0.099-0.007c0.332-0.012 1.070-0.076 1.295 0.227 0.095 0.13 0.11 0.4 0.121 0.559 0.051 0.673 0.010 1.377 0.010 2.053v3.981c0.471-0.56 1.014-1.072 1.51-1.611 0.49-0.531 0.962-1.143 1.505-1.617 0.13-0.112 0.227-0.172 0.394-0.217 0.347-0.095 1.604-0.164 1.868 0.023 0.069 0.048 0.126 0.141 0.121 0.227-0.024 0.379-2.527 2.846-2.963 3.278 1.557 2.303 2.356 3.438 3.161 4.568l-0.733-1.083c0.203 0.295 0.781 0.928 0.707 1.294-0.022 0.082-0.076 0.149-0.147 0.187l-0.002 0.001c-0.375 0.208-1.817 0.071-2.268-0.076-0.322-0.323-0.584-0.791-0.842-1.167l-1.566-2.283-0.749 0.65c-0.003 0.599 0.176 2.361-0.208 2.762-0.173 0.181-0.398 0.195-0.632 0.196-0.358 0.004-1.052 0.063-1.314-0.193-0.067-0.689-0.045-1.388-0.045-2.080l-0.002-2.957v-4.051c0-0.72-0.026-1.45 0.009-2.17 0.004-0.096 0.007-0.18 0.064-0.262 0.138-0.2 0.387-0.203 0.605-0.233zM64.25 12.454c0.472-0.011 1.413-0.115 1.838 0.061 0.16 0.066 0.232 0.229 0.303 0.378 0.303 0.631 0.502 1.358 0.746 2.017 0.424 1.146 0.88 2.28 1.309 3.424 0.251-0.646 1.975-5.455 2.258-5.695 0.138-0.118 0.402-0.143 0.574-0.147 0.364-0.011 1.044-0.092 1.32 0.163 0.069 0.164 0.061 0.253 0.020 0.429-0.141 0.614-0.441 1.251-0.662 1.842l-1.416 3.805-0.957 2.593c-0.193 0.523-0.362 1.083-0.611 1.581-0.138 0.277-0.308 0.537-0.521 0.765-0.509 0.545-1.174 0.778-1.906 0.804-0.314 0.010-0.853 0.069-1.095-0.156-0.154-0.312-0.168-1.042-0.067-1.379 0.097-0.329 0.816-0.265 1.106-0.429 0.467-0.262 0.593-0.779 0.714-1.26-0.375-1.133-3.197-8.062-3.17-8.454 0.012-0.17 0.093-0.243 0.216-0.342zM59.614 12.419c0.237-0.035 0.496-0.026 0.737-0.023 0.957 0.009 2.027 0.211 2.716 0.931 0.317 0.331 0.547 0.83 0.513 1.297-0.006 0.079-0.028 0.193-0.095 0.24-0.344 0.243-1.282 0.195-1.69 0.141-0.363-0.049-0.335-0.291-0.558-0.556-0.246-0.292-0.605-0.435-0.98-0.463-0.417-0.030-0.944 0.105-1.254 0.398-0.138 0.13-0.282 0.462-0.259 0.649 0.097 0.813 2.385 0.917 3.044 1.083 0.559 0.141 1.135 0.35 1.581 0.727 0.424 0.356 0.614 0.842 0.657 1.386 0.054 0.67-0.142 1.312-0.586 1.819-0.773 0.882-1.898 1.141-3.018 1.223-0.861 0.029-1.788-0.089-2.562-0.487-0.562-0.289-1.069-0.739-1.257-1.361-0.077-0.254-0.128-0.552 0.008-0.793 0.391-0.307 1.461-0.187 1.936-0.169 0.16 0.244 0.259 0.53 0.477 0.733 0.368 0.34 0.913 0.443 1.401 0.419 0.398-0.020 0.822-0.133 1.090-0.45 0.132-0.151 0.212-0.35 0.212-0.568 0-0.021-0.001-0.043-0.002-0.064l0 0.003c-0.088-0.921-2.358-0.919-3.060-1.081-0.508-0.116-1.025-0.322-1.436-0.647-0.432-0.344-0.709-0.806-0.761-1.36-0.006-0.068-0.010-0.146-0.010-0.226 0-0.627 0.222-1.202 0.593-1.651l-0.004 0.004c0.651-0.788 1.587-1.055 2.567-1.151z"></path>
</symbol>
<symbol id="icon-logo-header" viewBox="0 0 74 32">
<path fill="#fefefd" style="fill: var(--color3, #fefefd)" d="M2.14 16.698l-0.002 0.166 0.002-0.163z"></path>
<path fill="#010101" style="fill: var(--color2, #010101)" d="M13.714 8.552c0.237-0.012 0.493-0.026 0.707 0.023 0.121 0.026 0.201 0.071 0.269 0.176 0.045 0.242 0.084 0.482 0.093 0.727 0.019 0.522 0.015 1.049 0.010 1.574q-0.004 0.357-0.005 0.713v4.523c0 0.149 0.003 0.399 0.009 0.703 0.019 1.066 0.048 2.799-0.047 3.181-0.069 0.273-0.209 0.4-0.446 0.54-0.212 0.026-0.432 0.032-0.652 0.037q-0.173 0.003-0.341 0.009c-1.057 0.054-2.172 0.163-3.142 0.611-0.259 0.121-0.52 0.262-0.748 0.435-0.142 0.114-0.268 0.227-0.389 0.346l0.001-0.001c-0.347 0.329-0.749 0.709-1.127 0.729-0.437 0.024-0.851-0.349-1.232-0.694-0.182-0.164-0.357-0.321-0.523-0.425-0.376-0.235-0.81-0.438-1.268-0.587l-0.042-0.012c-0.745-0.244-1.536-0.368-2.318-0.415q-0.179-0.009-0.362-0.006c-0.227 0-0.457 0.002-0.67-0.046-0.187-0.041-0.307-0.136-0.447-0.259-0.103-0.244-0.134-0.546-0.147-0.809-0.011-0.267-0.017-0.58-0.017-0.895 0-0.185 0.002-0.369 0.006-0.553l-0 0.027q0.004-0.316 0.005-0.629l0.003-4.001-0.003-3.028c0-0.132-0.006-0.276-0.011-0.424-0.016-0.402-0.033-0.841 0.054-1.184 0.048-0.189 0.157-0.272 0.315-0.372 1.736-0.112 3.632 0.247 5.156 1.096 0.507 0.282 0.963 0.627 1.424 0.976 0.259-0.193 0.521-0.387 0.787-0.569 1.436-0.981 3.146-1.465 4.878-1.508q0.106-0.003 0.221-0.010zM13.514 9.911c-0.21 0.002-0.432-0.011-0.641 0.016-1.424 0.129-3.252 0.649-4.221 1.784-0.035 0.042-0.074 0.091-0.111 0.141l-0.006 0.009-0.003 8.909c0.158-0.115 0.315-0.233 0.476-0.346 1.331-0.795 2.996-0.931 4.513-1.040 0-3.157 0.041-6.319-0.007-9.474zM2.163 9.912c-0.033 1.319-0.026 2.642-0.019 3.963q0.005 0.813 0.006 1.623-0.002 0.597-0.010 1.199v0.003c-0.011 0.887-0.022 1.78 0.022 2.657 1.752 0.151 3.512 0.324 4.972 1.395q-0.013-4.434 0.049-8.868c-1.148-1.212-2.944-1.928-4.6-1.975-0.048-0.001-0.105-0.002-0.162-0.002-0.091 0-0.181 0.002-0.271 0.005l0.013-0z"></path>
<path fill="#010101" style="fill: var(--color2, #010101)" d="M13.714 8.552l0.011 0.211zM14.421 8.574l-0.046 0.206zM14.69 8.751l0.208-0.038-0.007-0.042-0.023-0.035zM14.783 9.478l-0.211 0.009zM14.793 11.052l0.211 0.002zM14.788 16.289h-0.212zM14.797 16.992l0.212-0.003zM14.75 20.173l0.205 0.052zM14.304 20.713l0.026 0.209 0.043-0.005 0.038-0.023zM13.652 20.75l-0.004-0.212zM13.311 20.759l-0.011-0.211zM10.169 21.37l0.088 0.192zM9.421 21.805l0.127 0.169zM9.033 22.15l-0.145-0.154zM7.906 22.879l0.011 0.211zM6.673 22.186l0.141-0.157zM6.15 21.76l0.112-0.179zM4.84 21.161l0.066-0.201zM2.522 20.745l-0.013 0.211zM2.16 20.739v-0.211zM1.489 20.694l-0.046 0.207zM1.042 20.434l-0.195 0.081 0.018 0.045 0.036 0.031zM0.895 19.625l0.211-0.010zM0.884 18.205l-0.211-0.003zM0.889 17.577h-0.211zM0.893 13.576h0.212zM0.889 10.548h-0.211zM0.878 10.124l-0.212 0.008zM0.932 8.94l-0.205-0.052zM1.247 8.568l-0.013-0.211-0.054 0.003-0.046 0.029zM6.403 9.664l-0.103 0.185zM7.828 10.64l-0.128 0.169 0.127 0.095 0.127-0.094zM8.615 10.070l0.12 0.175zM13.493 8.562l0.005 0.211zM13.514 9.911l0.211-0.003-0.003-0.21-0.21 0.002zM12.873 9.927l0.019 0.211 0.009-0.002zM8.653 11.711l-0.16-0.137zM8.535 11.861l-0.169-0.126-0.043 0.056v0.070zM8.533 20.77h-0.211v0.415l0.336-0.244zM9.008 20.424l-0.108-0.182-0.007 0.004-0.005 0.004zM13.521 19.384l0.015 0.21 0.196-0.014v-0.196zM2.162 9.911l-0.007-0.211-0.199 0.007-0.005 0.199zM2.143 13.874l-0.211 0.002zM2.149 15.498h-0.211zM2.14 16.696l-0.212-0.003v0.003zM2.14 16.7l0.211 0.003v-0.003zM2.161 19.357l-0.211 0.010 0.009 0.184 0.184 0.016zM7.133 20.752l-0.125 0.17 0.337 0.248v-0.419zM7.183 11.883l0.211 0.003 0.001-0.086-0.059-0.061zM2.583 9.909l0.006-0.211h-0.001zM13.713 8.551l0.011 0.211c0.245-0.013 0.469-0.023 0.649 0.017l0.047-0.206 0.046-0.207c-0.248-0.055-0.534-0.039-0.764-0.026zM14.42 8.573l-0.046 0.206c0.033 0.006 0.062 0.016 0.088 0.032l-0.001-0.001c0.015 0.009 0.031 0.023 0.052 0.055l0.354-0.231c-0.089-0.139-0.231-0.238-0.397-0.267l-0.004-0.001zM14.689 8.75l-0.208 0.038c0.044 0.24 0.081 0.467 0.090 0.697l0.422-0.016c-0.015-0.278-0.049-0.538-0.102-0.791l0.006 0.034zM14.782 9.477l-0.211 0.009c0.019 0.516 0.015 1.038 0.009 1.563l0.212 0.003 0.211 0.002c0.005-0.524 0.009-1.055-0.010-1.583zM14.793 11.051l-0.212-0.003q-0.004 0.357-0.005 0.716h0.423q0-0.355 0.005-0.712zM14.787 11.765h-0.212v4.523h0.423v-4.523zM14.787 16.288h-0.212c0 0.151 0.004 0.403 0.009 0.707l0.423-0.007c-0.004-0.189-0.008-0.434-0.009-0.68l-0-0.020zM14.796 16.991l-0.211 0.003c0.009 0.534 0.022 1.231 0.019 1.842-0.001 0.306-0.005 0.588-0.016 0.817-0.010 0.236-0.026 0.394-0.044 0.467l0.205 0.051 0.205 0.052c0.029-0.121 0.046-0.322 0.056-0.551 0.010-0.237 0.016-0.527 0.016-0.835 0.002-0.617-0.010-1.319-0.019-1.851zM14.749 20.172l-0.205-0.052c-0.019 0.090-0.059 0.168-0.115 0.232l0.001-0.001c-0.051 0.058-0.122 0.112-0.234 0.177l0.107 0.182 0.107 0.183c0.125-0.073 0.242-0.153 0.337-0.262 0.099-0.112 0.164-0.243 0.207-0.408zM14.303 20.712l-0.026-0.21c-0.2 0.026-0.41 0.031-0.631 0.035l0.005 0.212 0.004 0.211c0.24-0.002 0.475-0.016 0.706-0.042l-0.031 0.003zM13.651 20.749l-0.004-0.212c-0.112 0.003-0.232 0.005-0.348 0.010l0.011 0.211 0.010 0.211q0.162-0.007 0.335-0.009zM13.31 20.759l-0.011-0.211c-1.058 0.055-2.21 0.163-3.22 0.631l0.089 0.191 0.088 0.192c0.931-0.43 2.010-0.538 3.064-0.592zM10.168 21.369l-0.089-0.191c-0.301 0.136-0.559 0.289-0.799 0.467l0.012-0.008 0.128 0.168 0.127 0.169c0.212-0.161 0.457-0.295 0.709-0.412zM9.42 21.804l-0.128-0.168c-0.128 0.097-0.268 0.229-0.406 0.359l0.145 0.154 0.145 0.153c0.142-0.134 0.265-0.249 0.37-0.329zM9.032 22.149l-0.145-0.154c-0.163 0.16-0.336 0.311-0.518 0.453l-0.014 0.010q-0.271 0.198-0.463 0.209l0.012 0.211 0.011 0.211c0.251-0.014 0.487-0.143 0.688-0.289 0.204-0.149 0.401-0.336 0.573-0.498zM7.905 22.878l-0.012-0.211c-0.154 0.009-0.32-0.052-0.51-0.175-0.212-0.149-0.398-0.302-0.571-0.467l0.002 0.002-0.141 0.157-0.142 0.157c0.189 0.17 0.4 0.361 0.623 0.506s0.48 0.259 0.763 0.242zM6.672 22.185l0.141-0.157c-0.177-0.16-0.367-0.33-0.551-0.447l-0.112 0.179-0.113 0.178c0.147 0.093 0.309 0.237 0.494 0.404zM6.149 21.759l0.112-0.179c-0.39-0.245-0.84-0.456-1.315-0.609l-0.043-0.012-0.065 0.201-0.066 0.201c0.482 0.155 0.9 0.35 1.287 0.591l-0.024-0.014zM4.839 21.16l0.066-0.201c-0.767-0.251-1.576-0.378-2.371-0.425l-0.012 0.211-0.013 0.211c0.77 0.045 1.54 0.168 2.265 0.405zM2.521 20.745l0.013-0.211c-0.126-0.008-0.256-0.007-0.376-0.006l0.001 0.211v0.211c0.125 0 0.24-0.001 0.349 0.006zM2.159 20.739v-0.211c-0.233 0-0.438 0-0.625-0.041l-0.045 0.206-0.046 0.207c0.241 0.053 0.495 0.052 0.717 0.050zM1.488 20.693l0.046-0.206c-0.131-0.029-0.217-0.093-0.353-0.212l-0.14 0.157-0.14 0.158c0.144 0.129 0.299 0.254 0.541 0.309zM1.041 20.433l0.195-0.082c-0.087-0.208-0.118-0.477-0.13-0.737l-0.423 0.021c0.013 0.265 0.045 0.599 0.163 0.88zM0.894 19.625l0.211-0.010c-0.010-0.261-0.016-0.568-0.016-0.876 0-0.187 0.002-0.373 0.007-0.559l-0 0.028-0.423-0.005c-0.006 0.473-0.012 0.955 0.011 1.433zM0.883 18.205l0.212 0.003q0.004-0.316 0.005-0.631h-0.422q0 0.311-0.005 0.626zM0.888 17.576h0.212l0.003-4.001h-0.422l-0.003 4.001zM0.892 13.575h0.212l-0.003-3.028h-0.422l0.003 3.028zM0.888 10.547h0.212c0-0.137-0.007-0.285-0.012-0.432l-0.423 0.017q0.010 0.224 0.012 0.415zM0.877 10.123l0.211-0.009c-0.016-0.412-0.030-0.816 0.048-1.123l-0.205-0.052-0.205-0.053c-0.096 0.379-0.076 0.851-0.061 1.244zM0.931 8.939l0.205 0.052c0.027-0.105 0.075-0.151 0.224-0.246l-0.114-0.178-0.113-0.178c-0.167 0.106-0.337 0.227-0.406 0.498zM1.246 8.567l0.014 0.21c1.7-0.11 3.555 0.244 5.040 1.071l0.104-0.185 0.102-0.184c-1.565-0.871-3.502-1.237-5.272-1.123zM6.403 9.663l-0.103 0.185c0.492 0.273 0.937 0.609 1.399 0.96l0.128-0.169 0.127-0.169c-0.458-0.347-0.927-0.701-1.449-0.991zM7.827 10.639l0.126 0.169c0.259-0.193 0.518-0.384 0.781-0.564l-0.239-0.349c-0.271 0.185-0.536 0.381-0.796 0.574zM8.614 10.070l0.12 0.175c1.398-0.955 3.066-1.43 4.763-1.472l-0.005-0.21-0.006-0.211c-1.766 0.043-3.517 0.538-4.99 1.545zM13.492 8.561l0.005 0.211c0.074-0.002 0.153-0.006 0.227-0.010l-0.023-0.422q-0.116 0.007-0.216 0.010zM13.514 9.911l-0.002-0.212c-0.19 0.002-0.441-0.012-0.667 0.017l0.028 0.21 0.028 0.209c0.19-0.026 0.384-0.012 0.615-0.014zM12.873 9.926l-0.019-0.21c-0.861 0.078-1.654 0.265-2.4 0.548l0.062-0.021c-0.775 0.296-1.509 0.726-2.024 1.33l0.161 0.137 0.161 0.137c0.452-0.531 1.116-0.928 1.853-1.209 0.651-0.249 1.406-0.426 2.191-0.499l0.034-0.003zM8.652 11.71l-0.161-0.136q-0.067 0.079-0.125 0.159l0.338 0.253q0.055-0.073 0.111-0.14zM8.534 11.86h-0.211l-0.003 8.909h0.423l0.002-8.908zM8.532 20.769l0.125 0.171c0.163-0.119 0.313-0.233 0.471-0.343l-0.12-0.173-0.121-0.174c-0.163 0.112-0.325 0.237-0.478 0.348zM9.008 20.423l0.108 0.182c1.281-0.765 2.894-0.901 4.419-1.011l-0.015-0.21-0.016-0.211c-1.507 0.108-3.225 0.245-4.605 1.070zM13.52 19.383h0.211c0-3.152 0.042-6.32-0.007-9.476l-0.211 0.003-0.211 0.003c0.048 3.153 0.007 6.31 0.006 9.47zM2.162 9.911l-0.211-0.005c-0.033 1.322-0.026 2.649-0.019 3.97l0.211-0.002h0.212c-0.007-1.322-0.014-2.643 0.018-3.958zM2.143 13.874l-0.211 0.002q0.005 0.812 0.006 1.622h0.423q-0.001-0.812-0.006-1.624zM2.149 15.498h-0.211q-0.002 0.595-0.010 1.196l0.423 0.005q0.009-0.602 0.010-1.201zM2.14 16.696h-0.211v0.003h0.423v-0.003zM2.14 16.7l-0.212-0.003c-0.011 0.887-0.022 1.785 0.022 2.671l0.211-0.011 0.211-0.010c-0.043-0.869-0.033-1.756-0.022-2.644zM2.161 19.357l-0.018 0.211c1.761 0.151 3.459 0.323 4.865 1.354l0.251-0.341c-1.515-1.111-3.335-1.285-5.079-1.436zM7.133 20.752h0.211q-0.012-4.433 0.049-8.865l-0.423-0.007q-0.062 4.437-0.048 8.874zM7.183 11.883l0.153-0.145c-1.191-1.258-3.042-1.992-4.747-2.040l-0.006 0.211-0.006 0.212c1.608 0.045 3.348 0.741 4.452 1.908zM2.583 9.909l0.005-0.211c-0.050-0.001-0.11-0.002-0.17-0.002-0.092 0-0.185 0.002-0.276 0.005l0.013-0 0.007 0.211 0.007 0.212q0.205-0.008 0.409-0.003zM20.203 9.525c1.693-0.029 4.545-0.080 5.483 0.28 0.718 0.275 1.328 0.816 1.64 1.522 0.308 0.696 0.329 1.618 0.050 2.327-0.297 0.758-0.845 1.078-1.552 1.383l0.164 0.058c0.152 0.052 0.305 0.105 0.447 0.176 0.65 0.332 1.145 0.891 1.385 1.57l0.006 0.020c0.287 0.848 0.177 1.797-0.212 2.59-0.291 0.493-0.698 0.89-1.184 1.159l-0.016 0.008c-0.443 0.248-0.881 0.348-1.381 0.413-0.759 0.101-5.168 0.168-5.722-0.021-0.074-0.026-0.149-0.054-0.183-0.127-0.081-0.177-0.093-0.448-0.101-0.657l-0.003-0.057c-0.053-1.185-0.035-2.385-0.018-3.581q0.013-0.799 0.016-1.591c0.002-0.509-0.005-1.021-0.011-1.534-0.013-1.002-0.026-2.006 0.020-2.995 0.010-0.214 0.029-0.454 0.105-0.656 0.060-0.154 0.135-0.208 0.279-0.276 0.213-0.001 0.482-0.006 0.788-0.011zM24.436 15.957c-0.617-0.147-2.565-0.045-3.306-0.045v3.382c0.871 0.003 2.766 0.112 3.511-0.079 0.276-0.071 0.495-0.182 0.704-0.374 0.336-0.395 0.51-0.795 0.459-1.325-0.036-0.476-0.266-0.892-0.61-1.174l-0.003-0.002c-0.211-0.176-0.464-0.309-0.742-0.38l-0.013-0.003zM21.744 11.24c-0.235 0.008-0.446 0.014-0.616 0.015l0.002 3.010c0.197 0 0.439 0.007 0.701 0.014 0.868 0.023 1.976 0.051 2.554-0.097 0.27-0.069 0.493-0.178 0.708-0.354 0.283-0.342 0.437-0.733 0.4-1.183-0.030-0.416-0.232-0.78-0.534-1.025l-0.003-0.002c-0.595-0.462-2.154-0.411-3.213-0.377zM37.668 16.258c-0.277-2.222-2.155-3.925-4.429-3.925-2.464 0-4.462 1.998-4.462 4.462 0 0.226 0.017 0.448 0.049 0.665l-0.003-0.024c0.324 2.173 2.177 3.821 4.416 3.821 2.464 0 4.462-1.998 4.462-4.462 0-0.189-0.012-0.376-0.035-0.559l0.002 0.022zM32.941 14.314c0.496-0.025 0.933-0.016 1.373 0.251 0.494 0.302 0.801 0.816 0.934 1.367 0.19 0.783 0.145 1.861-0.294 2.557-0.316 0.499-0.755 0.72-1.312 0.842-0.534 0.054-1.064 0.003-1.521-0.303-0.483-0.324-0.764-0.853-0.873-1.412-0.155-0.795-0.106-1.827 0.374-2.508 0.329-0.467 0.77-0.697 1.32-0.794zM47.243 16.23c-0.303-2.192-2.164-3.862-4.416-3.862-2.461 0-4.456 1.995-4.456 4.456 0 0.221 0.016 0.438 0.047 0.65l-0.003-0.024c0.338 2.154 2.181 3.783 4.405 3.783 2.461 0 4.456-1.995 4.456-4.456 0-0.193-0.012-0.382-0.036-0.568l0.002 0.022zM42.48 14.314c0.482-0.039 0.949-0.024 1.382 0.219 0.515 0.288 0.83 0.795 0.976 1.354 0.21 0.803 0.169 1.839-0.272 2.563-0.311 0.513-0.755 0.752-1.323 0.88-0.532 0.069-1.056 0.009-1.514-0.291-0.488-0.32-0.771-0.843-0.891-1.404-0.167-0.792-0.112-1.814 0.35-2.502 0.313-0.468 0.75-0.707 1.29-0.818zM49.022 9.164q0.049-0.005 0.099-0.007c0.332-0.012 1.070-0.076 1.295 0.227 0.095 0.13 0.11 0.4 0.121 0.559 0.051 0.673 0.010 1.377 0.010 2.053v3.981c0.471-0.56 1.014-1.072 1.51-1.611 0.49-0.531 0.962-1.143 1.505-1.617 0.13-0.112 0.227-0.172 0.394-0.217 0.347-0.095 1.604-0.164 1.868 0.023 0.069 0.048 0.126 0.141 0.121 0.227-0.024 0.379-2.527 2.846-2.963 3.278 1.557 2.303 2.356 3.438 3.161 4.568l-0.733-1.083c0.203 0.295 0.781 0.928 0.707 1.294-0.022 0.082-0.076 0.149-0.147 0.187l-0.002 0.001c-0.375 0.208-1.817 0.071-2.268-0.076-0.322-0.323-0.584-0.791-0.842-1.167l-1.566-2.283-0.749 0.65c-0.003 0.599 0.176 2.361-0.208 2.762-0.173 0.181-0.398 0.195-0.632 0.196-0.358 0.004-1.052 0.063-1.314-0.193-0.067-0.689-0.045-1.388-0.045-2.080l-0.002-2.957v-4.051c0-0.72-0.026-1.45 0.009-2.17 0.004-0.096 0.007-0.18 0.064-0.262 0.138-0.2 0.387-0.203 0.605-0.233zM64.25 12.454c0.472-0.011 1.413-0.115 1.838 0.061 0.16 0.066 0.232 0.229 0.303 0.378 0.303 0.631 0.502 1.358 0.746 2.017 0.424 1.146 0.88 2.28 1.309 3.424 0.251-0.646 1.975-5.455 2.258-5.695 0.138-0.118 0.402-0.143 0.574-0.147 0.364-0.011 1.044-0.092 1.32 0.163 0.069 0.164 0.061 0.253 0.020 0.429-0.141 0.614-0.441 1.251-0.662 1.842l-1.416 3.805-0.957 2.593c-0.193 0.523-0.362 1.083-0.611 1.581-0.138 0.277-0.308 0.537-0.521 0.765-0.509 0.545-1.174 0.778-1.906 0.804-0.314 0.010-0.853 0.069-1.095-0.156-0.154-0.312-0.168-1.042-0.067-1.379 0.097-0.329 0.816-0.265 1.106-0.429 0.467-0.262 0.593-0.779 0.714-1.26-0.375-1.133-3.197-8.062-3.17-8.454 0.012-0.17 0.093-0.243 0.216-0.342zM59.614 12.419c0.237-0.035 0.496-0.026 0.737-0.023 0.957 0.009 2.027 0.211 2.716 0.931 0.317 0.331 0.547 0.83 0.513 1.297-0.006 0.079-0.028 0.193-0.095 0.24-0.344 0.243-1.282 0.195-1.69 0.141-0.363-0.049-0.335-0.291-0.558-0.556-0.246-0.292-0.605-0.435-0.98-0.463-0.417-0.030-0.944 0.105-1.254 0.398-0.138 0.13-0.282 0.462-0.259 0.649 0.097 0.813 2.385 0.917 3.044 1.083 0.559 0.141 1.135 0.35 1.581 0.727 0.424 0.356 0.614 0.842 0.657 1.386 0.054 0.67-0.142 1.312-0.586 1.819-0.773 0.882-1.898 1.141-3.018 1.223-0.861 0.029-1.788-0.089-2.562-0.487-0.562-0.289-1.069-0.739-1.257-1.361-0.077-0.254-0.128-0.552 0.008-0.793 0.391-0.307 1.461-0.187 1.936-0.169 0.16 0.244 0.259 0.53 0.477 0.733 0.368 0.34 0.913 0.443 1.401 0.419 0.398-0.020 0.822-0.133 1.090-0.45 0.132-0.151 0.212-0.35 0.212-0.568 0-0.021-0.001-0.043-0.002-0.064l0 0.003c-0.088-0.921-2.358-0.919-3.060-1.081-0.508-0.116-1.025-0.322-1.436-0.647-0.432-0.344-0.709-0.806-0.761-1.36-0.006-0.068-0.010-0.146-0.010-0.226 0-0.627 0.222-1.202 0.593-1.651l-0.004 0.004c0.651-0.788 1.587-1.055 2.567-1.151z"></path>
</symbol>
<symbol id="icon-map" viewBox="0 0 32 32">
<path d="M16 18.667c2.941 0 5.333-2.392 5.333-5.333s-2.392-5.333-5.333-5.333-5.333 2.392-5.333 5.333 2.392 5.333 5.333 5.333zM16 10.667c1.471 0 2.667 1.196 2.667 2.667s-1.196 2.667-2.667 2.667-2.667-1.196-2.667-2.667 1.196-2.667 2.667-2.667z"></path>
<path d="M15.227 29.085c0.215 0.155 0.483 0.247 0.773 0.247s0.558-0.093 0.777-0.25l-0.004 0.003c0.405-0.287 9.933-7.165 9.893-15.752 0-5.881-4.785-10.667-10.667-10.667s-10.667 4.785-10.667 10.66c-0.039 8.593 9.488 15.472 9.893 15.759zM16 5.333c4.413 0 8 3.588 8 8.007 0.028 5.917-5.851 11.231-8 12.973-2.147-1.744-8.027-7.059-8-12.98 0-4.412 3.588-8 8-8z"></path>
</symbol>
<symbol id="icon-menu-alt-right" viewBox="0 0 32 32">
<path d="M5.333 8h21.333v2.667h-21.333zM10.667 14.667h16v2.667h-16zM17.333 21.333h9.333v2.667h-9.333z"></path>
</symbol>
<symbol id="icon-minus" viewBox="0 0 32 32">
<path d="M6.667 14.667h18.667v2.667h-18.667z"></path>
</symbol>
<symbol id="icon-phone" viewBox="0 0 32 32">
<path d="M23.609 16.391c-0.241-0.241-0.575-0.39-0.943-0.39s-0.701 0.149-0.943 0.39l-2.124 2.125c-0.985-0.293-2.824-0.96-3.989-2.125s-1.832-3.004-2.125-3.989l2.125-2.125c0.241-0.241 0.39-0.575 0.39-0.943s-0.149-0.701-0.39-0.943l-5.333-5.333c-0.241-0.241-0.575-0.39-0.943-0.39s-0.701 0.149-0.943 0.39l-3.617 3.616c-0.507 0.507-0.792 1.203-0.781 1.913 0.031 1.899 0.533 8.493 5.731 13.691s11.792 5.699 13.693 5.731h0.036c0.704 0 1.369-0.277 1.873-0.781l3.616-3.616c0.241-0.241 0.39-0.575 0.39-0.943s-0.149-0.701-0.39-0.943v0zM23.44 25.34c-1.664-0.028-7.357-0.475-11.831-4.949-4.488-4.488-4.923-10.201-4.949-11.832l2.673-2.673 3.448 3.448-1.724 1.724c-0.242 0.241-0.391 0.575-0.391 0.943 0 0.097 0.010 0.191 0.030 0.282l-0.002-0.009c0.032 0.153 0.815 3.789 3.028 6.003s5.849 2.996 6.003 3.028c0.082 0.018 0.177 0.028 0.274 0.028 0.368 0 0.701-0.149 0.942-0.39l1.725-1.724 3.448 3.448z"></path>
</symbol>
<symbol id="icon-plus" viewBox="0 0 32 32">
<path d="M25.333 14.667h-8v-8h-2.667v8h-8v2.667h8v8h2.667v-8h8z"></path>
</symbol>
<symbol id="icon-right-arrow-alt" viewBox="0 0 32 32">
<path d="M15.057 23.057l1.885 1.885 8.943-8.943-8.943-8.943-1.885 1.885 5.724 5.724h-12.781v2.667h12.781z"></path>
</symbol>
<symbol id="icon-star" viewBox="0 0 32 32">
<path d="M8.688 19.097l-1.987 8.603c-0.023 0.092-0.036 0.197-0.036 0.306 0 0.735 0.596 1.331 1.331 1.331 0.277 0 0.535-0.085 0.748-0.23l-0.005 0.003 7.26-4.84 7.26 4.84c0.208 0.14 0.463 0.223 0.738 0.223 0.737 0 1.335-0.598 1.335-1.335 0-0.129-0.018-0.254-0.053-0.372l0.002 0.009-2.439-8.533 6.048-5.443c0.271-0.245 0.441-0.598 0.441-0.991 0-0.699-0.538-1.273-1.223-1.329l-0.005-0-7.601-0.605-3.289-7.281c-0.212-0.469-0.676-0.789-1.215-0.789s-1.002 0.32-1.211 0.781l-0.003 0.008-3.289 7.281-7.601 0.604c-0.69 0.056-1.228 0.63-1.228 1.329 0 0.374 0.154 0.712 0.402 0.955l0 0zM12.492 13.329c0.495-0.041 0.91-0.346 1.106-0.773l0.003-0.008 2.399-5.308 2.399 5.308c0.2 0.435 0.614 0.741 1.105 0.781l0.005 0 5.296 0.42-4.361 3.925c-0.379 0.341-0.529 0.867-0.391 1.357l1.671 5.847-4.981-3.321c-0.208-0.141-0.464-0.225-0.739-0.225s-0.532 0.084-0.744 0.228l0.005-0.003-5.205 3.471 1.4-6.061c0.022-0.090 0.034-0.193 0.034-0.299 0-0.374-0.154-0.712-0.402-0.954l-0-0-4.051-3.949z"></path>
</symbol>
<symbol id="icon-up-arrow-alt" viewBox="0 0 32 32">
<path d="M14.667 11.219v12.781h2.667v-12.781l5.724 5.724 1.885-1.885-8.943-8.943-8.943 8.943 1.885 1.885z"></path>
</symbol>
<symbol id="icon-x" viewBox="0 0 32 32">
<path d="M21.589 8.459l-5.657 5.656-5.656-5.656-1.885 1.885 5.656 5.656-5.656 5.656 1.885 1.885 5.656-5.656 5.657 5.656 1.885-1.885-5.656-5.656 5.656-5.656z"></path>
</symbol>
</defs>
</svg>
